<svg xmlns="http://www.w3.org/2000/svg" viewBox="0 0 618 304.75">
  <path fill="#ff0" d="m0 304.75 29.48-114.36L53.42 70.01l96.44-22.61 150.31-10.64L518.32 0 618 66.69l-48.47 97.1-23.94 38.57L63.4 239.61 0 304.75z"/>
  <g fill="#0a2954">
    <path d="M122.32 118.42c.04.31.78.63 2.23.95.08.73.63 1.16 1.64 1.3l.04.31-.25.31.04.31c.77-.09 1.18.06 1.22.46l-.25.31c.94-.11 2.23.75 3.87 2.56.09.79-9.8 3.32-29.66 7.59-2 .23-3.1 1.95-3.3 5.16-.25.03-.66 1.57-1.24 4.64l.28-.03 7.62-1.45c1.03 1.06 1.78 1.57 2.26 1.51l.17 1.5.69.81.03.28-.87.1.04.31.28-.03 1.74-.52 1.85.39.04.31-.28.32.04.31c1.22.11 1.84.34 1.88.67-2.16 2.17-8.81 5.03-19.96 8.59-5.05 13.47-8.07 21.11-9.04 22.91-1.58.18-2.34.56-2.27 1.15l-.28.03-.97-.49.28-.32-.14-1.19-.59.07c.07.58-.1.9-.49.94-.32-.96-.88-1.39-1.67-1.3l.03.28c-.01 1.01-.24 1.55-.7 1.6l-.32-.28-.31.04-.53.66-1.36-1.33c-.58.07-.91-.2-.98-.8-.41-3.54 1.76-11.58 6.5-24.1 4.55-12.51 6.57-21.02 6.05-25.54 1.24-2.95 2.56-4.5 3.96-4.66l4.88.64a222.98 222.98 0 0 1 27.81-5.29Z" class="cls-2"/>
    <path d="m128.91 116.81 1.37-.16c2.89-.33 5.44.94 7.62 3.81l.38 1.06c.17 1.52-1.3 6.3-4.43 14.34-3.24 8.71-4.46 16.48-3.67 23.33l.09.81a39.74 39.74 0 0 0 10.18-12.5c5.9-9.6 9.26-16.44 10.08-20.5l1.22-3.72c.54-.06.78-.36.72-.91l.25-.31.56-.06.13 1.09.25-.03c.15-3.14.43-4.73.84-4.78l.28-.03.13 1.09.25-.03-.25-2.19.56-.06.09.81c.61-.41 1.26-1.86 1.96-4.37l.28-.03c2.01 1.48 3.21 4.01 3.63 7.59 1.38 11.99-4.76 26.51-18.44 43.55-2.75 2.17-6 3.48-9.77 3.91-6.98.8-11.91-1.21-14.81-6.05l-.91-3.22-.15-1.34c-.82-7.16-.1-13.69 2.18-19.58l5.17-17.46c1.27-2.53 2.68-3.88 4.22-4.06Z" class="cls-2"/>
    <path d="m190.53 108.1 5.62-.36 5.59-.64a2.53 2.53 0 0 1 2.55 1.23l-.28.32c.99-.05 1.51.19 1.57.71l.04.31-3.22.37.03.28 1.16-.13.07.59-.56.06.32.28-.25.31.07.59 1.5.11.04.31-.28.32.04.31c1.19-.14 1.87.58 2.05 2.14.8.01 1.23.26 1.29.74l.07.59-17.16 4.06c-1.48.17-2.44 2.17-2.89 6-8.04 21.39-12.76 34.97-14.14 40.74-1.05 1.32-1.96 2.03-2.73 2.12l-1.32-1.05c-1.17.13-1.81-.29-1.92-1.27l-.28.35-.28.03c-.1-.5-1.18-1.27-3.24-2.32l-1.08-1.39c-.46-3.96 3.05-15 10.52-33.14l1.73-5.86-10.73 3.01c-4.12.47-7.09-1.07-8.89-4.64l-1.28-3.43-.07-.59c-.14-1.25.5-2.52 1.94-3.8l3.84-.44c6.16-.71 16.35-2.98 30.58-6.81Z" class="cls-2"/>
    <path d="m227.53 104.54 2.44-.28c12.14-1.4 19.76 1.77 22.86 9.49l.47 1.62.09.81c.28 2.39-4.71 7.01-14.96 13.84 4.06 11.24 6.35 19.15 6.88 23.73l.31.25.03.25-.18.88.56 2.4-.25.31-.53.06c-.08-.73-.31-1.07-.69-1.03.06.54-.08.83-.44.87l-.56.06-.28-.25-.28.03c-.19.76-.42 1.16-.69 1.19l-1.41-.12-.47.62c-.23-.9-.74-1.31-1.53-1.22a150.55 150.55 0 0 1-10.28-22.52l-11.77 5.5c-.83 2.69-1.57 4.24-2.22 4.65l-.12 1.41-.81.09.75-3.12-.03-.28-.28.03-1.03 3.16.63.5c-.69.08-1.83 2.13-3.44 6.16-.25.05-.65 1.3-1.21 3.75-.38.04-1.07 1.96-2.09 5.75l-.28.03c-.1-.83-1.09-1.46-2.97-1.87l-.47.62c-.04-.38-.35-.53-.91-.46l-.78.37c-.51-.93-1.11-1.41-1.81-1.44l-.1-.84c-.51-4.39 3.08-17.12 10.76-38.17-4.11-2.14-6.25-4.01-6.44-5.59l-.15-1.34c.04-.97 3.2-2.99 9.49-6.06.75-1.56 5.47-2.85 14.18-3.85Zm-6.24 22.49.56-.06c10.35-5.92 16.54-10.39 18.55-13.43l-.03-.28-5.46.38-.53.06c-6.89.79-10.24 2-10.06 3.63-1.51 5.72-2.52 8.96-3.03 9.72Zm92.83-30.91 1.19-.14c3.02-.35 5.54 1.83 7.56 6.54l.03.28c.19 1.64-2.41 4.8-7.8 9.47-12.92 15.37-21.14 24.4-24.67 27.08l.04.31 4.93-.88 11.37-1.31 9.97-.83.25-.34.31-.04.32.28 1.43-.48 2.9-.33.66.52-.21.91.31-.04c.77-.09 1.18.07 1.22.46l-.77.98.98.77.03.28-.39 1.82.04.31c.58-.07.91.19.98.77l1.25.42c.27 2.35-1.83 3.79-6.31 4.3l-.91-.21-1.43.48-7.03.49-5.25.6c-11.2 1.29-20.1 3.7-26.7 7.22l-2.03.23c-4.66-1.07-7.21-3.54-7.66-7.41l-.13-1.16c-.1-.9 1.26-1.84 4.1-2.85.4-2.79 5.31-8.98 14.73-18.56 6.46-6.36 11.03-11.22 13.7-14.58l-.28.03c-5.16 1.58-8.9 2.51-11.23 2.78-3.89.45-6.87-1.38-8.92-5.49l-.2-1.75c.87-3.46 7.68-5.92 20.45-7.39 6.44-2.11 10.84-3.31 13.2-3.58Z" class="cls-2"/>
    <path d="M337.31 94.08c5.02-.58 8.26.56 9.73 3.41.95 2.57 2.33 7.73 4.15 15.47l.31.25c.25 1.22.58 1.8.99 1.75l8.28-2.03.06.53.28-.03 4.16-.73.06.5-1.78.74.03.28 1.84-.21 1.81-.49.06.53c-1.71.91-3.06 1.43-4.06 1.54l.06.53 1.28-.43c1.25.22 1.89.5 1.93.85l1.31-.44c3.51-.3 5.3-.15 5.37.46l-.25.28 1.9.32.06.53c-2.23 1.5-7.01 3.12-14.35 4.85l-4.63 1.32c3.29 8.65 5.13 14.57 5.49 17.75l.12 1.03-.69.9-.28.03c-.58.07-1.22-.13-1.91-.6l.09.81-.53.06-.06-.53-.75.62-1.12-.69-2.5 1.36-2.36-1.85c-1.04-1.31-2.95-6.34-5.72-15.07l-.25.03c-10.69 4.31-15.93 7.32-15.73 9.03-.66.52-2.45 3.47-5.37 8.85-1.04 1.55-1.93 2.37-2.66 2.46l-.68-1.25-.22.28-.25.03c-1.13-.5-1.75-1.14-1.83-1.91l-.22.28-.53.06-.06-.53c-.73.08-1.49-.35-2.27-1.32-.71.08-1.08-.06-1.12-.41l-.21-1.84c-.23-1.96 1.5-5.44 5.19-10.44 1.45-3.18 3.87-7.64 7.26-13.37l7.12-16.77 1.2-5.49c.86-.8 1.61-1.23 2.25-1.3Zm.84 25.73.03.25c2.89-1.11 4.32-1.81 4.29-2.08l-1.27-4.13c-.46.26-1.47 2.25-3.05 5.95Zm23.91-7.28.53-.06.06.53-.53.06-.06-.53Zm.49 1.81.03.25.53-.06-.03-.25-.53.06Zm73.84-33.21c2.48-.29 4.12.17 4.93 1.36.73-.08 1.16.45 1.29 1.59.24 2.06-2.34 10.58-7.72 25.54-2.31 6.53-6.56 14.23-12.75 23.08-3.8 4.55-9.01 7.21-15.63 7.97-5.02.58-8.81-1.52-11.39-6.28a6.6 6.6 0 0 1-.91-3l-.19-1.66a43.6 43.6 0 0 1 2.21-17.34l.56-.06c1.63 1.14 2.59 2.25 2.88 3.34.38-.04.53-.35.47-.91l.53-.06.22 1.94c.4-.05.54-.54.43-1.47l.25-.28.28-.03.34.78c.62-.07 1.14-1.35 1.55-3.85l1.06-.38c.13 1.1.46 1.62 1 1.56l-.06-.53.56-.06.13 15.68.85 2.72.56-.06c2.63-1.13 6.1-5.92 10.4-14.39 3.72-7.66 7.2-17.23 10.46-28.7-.33-2.87 2.23-5.04 7.67-6.48Z" class="cls-2"/>
    <path d="m441.07 80.87 1.37-.16c2.89-.33 5.43.94 7.62 3.81l.38 1.06c.17 1.52-1.3 6.3-4.42 14.34-3.24 8.71-4.46 16.48-3.67 23.33l.09.81a39.7 39.7 0 0 0 10.17-12.5c5.9-9.6 9.26-16.43 10.08-20.5l1.22-3.72c.54-.06.78-.36.72-.9l.25-.31.56-.06.13 1.09.25-.03c.14-3.14.42-4.73.84-4.78l.28-.03.13 1.09.25-.03-.25-2.19.56-.06.09.81c.61-.41 1.26-1.86 1.97-4.37l.28-.03c2 1.48 3.21 4.01 3.63 7.59 1.38 11.99-4.76 26.51-18.44 43.55-2.75 2.17-6 3.48-9.77 3.91-6.98.8-11.91-1.21-14.81-6.05l-.91-3.22-.15-1.34c-.83-7.16-.1-13.69 2.17-19.59l5.17-17.46c1.27-2.53 2.67-3.88 4.22-4.06Z" class="cls-2"/>
    <path d="m502.7 72.16 5.62-.36 5.59-.64a2.53 2.53 0 0 1 2.55 1.23l-.28.32c.99-.05 1.51.19 1.57.71l.04.31-3.22.37.03.28 1.15-.13.07.59-.56.06.32.28-.25.31.07.59 1.5.11.04.31-.28.32.04.31c1.19-.14 1.87.58 2.05 2.14.8.01 1.23.26 1.29.74l.07.59-17.16 4.06c-1.48.17-2.44 2.17-2.88 6-8.04 21.39-12.76 34.97-14.14 40.74-1.05 1.32-1.96 2.03-2.73 2.12l-1.32-1.05c-1.17.13-1.81-.29-1.92-1.27l-.28.35-.28.03c-.1-.5-1.18-1.27-3.24-2.32l-1.08-1.39c-.46-3.96 3.05-15 10.52-33.14l1.73-5.86-10.73 3.01c-4.12.47-7.09-1.07-8.89-4.64l-1.28-3.43-.07-.59c-.14-1.25.5-2.52 1.94-3.8l3.84-.44c6.16-.71 16.36-2.98 30.58-6.81Z" class="cls-2"/>
    <path d="m539.69 68.6 2.44-.28c12.14-1.4 19.76 1.77 22.86 9.49l.47 1.62.09.81c.28 2.39-4.71 7.01-14.96 13.84 4.06 11.24 6.35 19.15 6.88 23.73l.31.25.03.25-.18.88.56 2.4-.25.31-.53.06c-.08-.73-.31-1.07-.69-1.03.06.54-.08.83-.44.87l-.56.06-.28-.25-.28.03c-.19.76-.42 1.16-.69 1.19l-1.41-.12-.47.62c-.23-.9-.74-1.31-1.53-1.22a150.55 150.55 0 0 1-10.28-22.52l-11.77 5.5c-.83 2.69-1.57 4.24-2.22 4.65l-.12 1.41-.81.09.75-3.12-.03-.28-.28.03-1.03 3.16.63.5c-.69.08-1.83 2.13-3.44 6.16-.25.05-.65 1.3-1.21 3.75-.37.04-1.07 1.96-2.09 5.75l-.28.03c-.1-.83-1.09-1.46-2.97-1.87l-.47.62c-.04-.38-.34-.53-.91-.46l-.78.37c-.51-.93-1.11-1.41-1.81-1.44l-.1-.84c-.5-4.39 3.08-17.12 10.76-38.17-4.11-2.14-6.25-4.01-6.43-5.59l-.16-1.34c.04-.97 3.2-2.99 9.49-6.06.75-1.56 5.47-2.85 14.18-3.85Zm-6.24 22.49.56-.06c10.35-5.92 16.54-10.39 18.55-13.43l-.03-.28-5.46.38-.53.06c-6.89.79-10.24 2-10.06 3.63-1.51 5.72-2.52 8.96-3.03 9.72Z" class="cls-2"/>
  </g>
</svg>
