<svg xmlns="http://www.w3.org/2000/svg" viewBox="0 0 51 50.9">
  <path fill="none" d="M0 0h51v50.9H0V0z"/>
  <path fill="#ff0" d="M25.5 50.9c-6.9 0-7.8 0-10.5-.2-2.1 0-4.2-.4-6.2-1.2-1.7-.6-3.2-1.6-4.5-2.9-1.3-1.3-2.3-2.8-3-4.5-.7-2-1.1-4.1-1.2-6.2C0 33.2 0 32.3 0 25.4S0 17.7.2 15c0-2.1.4-4.2 1.2-6.2C2 7.1 3 5.5 4.3 4.3 5.6 3 7.1 2 8.8 1.3 10.8.6 12.9.2 15 .1 17.7 0 18.6 0 25.5 0s7.8 0 10.5.2c2.1 0 4.2.4 6.2 1.2 1.7.6 3.2 1.6 4.5 2.9C48 5.5 49 7.1 49.6 8.8c.7 2 1.1 4.1 1.2 6.2.2 2.7.2 3.6.2 10.4s0 7.8-.2 10.5c0 2.1-.4 4.2-1.2 6.2-1.3 3.4-4 6.1-7.5 7.4-2 .7-4.1 1.1-6.2 1.2-2.6.2-3.5.2-10.4.2zm0-46.3c-6.8 0-7.6 0-10.3.1-1.6 0-3.2.3-4.7.9-1.1.4-2.1 1.1-3 1.9-.8.8-1.5 1.8-1.9 2.9-.6 1.5-.9 3.1-.9 4.7-.1 2.7-.1 3.5-.1 10.3s0 7.6.1 10.3c0 1.6.3 3.2.9 4.7.4 1.1 1.1 2.1 1.9 2.9.8.8 1.8 1.5 2.9 1.9 1.5.6 3.1.9 4.7.9 2.7.1 3.5.1 10.3.1s7.6 0 10.3-.1c1.6 0 3.2-.3 4.7-.9 2.2-.9 4-2.6 4.8-4.8.6-1.5.9-3.1.9-4.7.1-2.7.1-3.5.1-10.3s0-7.6-.1-10.3c0-1.6-.3-3.2-.9-4.7-.4-1.1-1.1-2.1-1.9-2.9-.8-.8-1.8-1.5-2.9-1.9-1.4-.6-3-.9-4.6-.9-2.7-.1-3.5-.1-10.3-.1z"/>
  <path fill="#ff0" d="M25.5 38C18 38 12 31.9 12 24.5c0-3.6 1.4-7 4-9.5 5.3-5.3 13.8-5.3 19.1 0s5.3 13.8 0 19.1c-2.6 2.5-6 3.9-9.6 3.9zm0-22.3c-4.8 0-8.8 3.9-8.8 8.8s3.9 8.8 8.8 8.8 8.8-3.9 8.8-8.8-4-8.8-8.8-8.8zM42 11c0 1.7-1.3 3-3 3s-3-1.3-3-3 1.3-3 3-3 3 1.3 3 3"/>
</svg>
