<svg xmlns="http://www.w3.org/2000/svg" viewBox="0 0 164 164">
  <path fill="#ffdf05" d="M79 34a44 44 0 0 0-27 12c-5 5-8 10-11 17a38 38 0 0 0-2 22c3 9 9 17 17 22 9 6 21 8 33 10 7 0 15 0 21-2 8-4 13-12 16-21l1-3v-3c5-26-13-51-40-54a44 44 0 0 0-8 0z"/>
  <path fill="#d9a402" d="M82 29a42 42 0 0 0-9 1v1a43 43 0 0 0-35 32c-2 7-1 15 1 22v-1c-1-7-1-14 2-21s6-12 11-17a44 44 0 0 1 35-12c27 3 45 28 40 54v3c4-17 0-34-10-46-9-10-22-16-35-16ZM1 81l-1 2c-2 21 6 42 20 57 12 12 27 19 43 21 22 5 46 2 65-10 21-14 34-37 36-63-1 7-2 13-5 20a79 79 0 0 1-9 15 84 84 0 0 1-85 33c-29-6-55-29-62-58a78 78 0 0 1-2-17Z"/>
  <path fill="#febd00" d="M74 0a42 42 0 0 0-18 4c-19 7-35 20-45 37a78 78 0 0 0-8 57c7 29 33 52 62 58 32 7 67-7 85-33a79 79 0 0 0 9-15c10-25 6-54-10-76A79 79 0 0 0 80 1Zm8 29c13 0 26 6 35 16 11 13 14 32 9 49-3 9-8 17-16 21-6 2-14 2-21 2-12-2-24-4-33-10-14-8-22-27-18-44a43 43 0 0 1 35-32v-1a42 42 0 0 1 9-1z"/>
  <g fill="#f9ec00">
    <path d="m131 14 9 8 8 8-28 19-9-9a65 65 0 0 0-10-7Zm-31 23L38 79s1 9 4 13l9 11c1 1 68-50 68-50l-9-10a303 303 0 0 0-10-5z" opacity=".8"/>
    <path d="m100 37 1-4 10 7 9 9-1 4-9-10-10-5zM37 76 3 100l5 14c2 6 9 13 9 13l32-25-8-13Z" opacity=".7"/>
  </g>
  <g fill="#fff">
    <path d="m101 63-4 1a9 9 0 0 0-4 2 7 7 0 0 0 0 10c5 5 15 3 17-4s-4-13-11-12-8 12-2 16c5 3 10-6 5-9l1 2-2 1h1l-2-1c1 1 0 1 0 0l1-1c1 0-1 0 0 0h-1v5s-1 0 0 0h1l5-1c2-1 3-5 2-7-2-3-5-3-7-2zm-61 46c-3-1-7-1-9 1s-3 7-1 10 6 4 9 2l4-3c1-2 0-4-1-6-3-6-12-7-15-1-3 5 1 12 7 13 3 0 7-1 8-4 2-3 1-8-2-9-2-2-6-1-7 1s-1 6 2 7c-1 0-2-2-1-4l1-1c-1 1 1 0 0 0s1 0 0 0h1-1 1c-1 0-1 0 0 0 0 1 0 1 0 0v1l-1 1-1 1s-1 0 0 0c-1 0-1 0 0 0a1 1 0 0 1-1-1v1-1 1c0-1 0-1 0 0l2-5h1c2 0 2 1 3 2a3 3 0 0 1-4 3c2 1 6 1 7-2 1-2 1-5-2-7zm80-94c-3-1-6 0-8 2a7 7 0 0 0 1 9 7 7 0 0 0 7 2 7 7 0 0 0 5-6c0-3-2-5-4-5l-1-1a5 5 0 0 0-6 4l1 4 2 2h2l-4-4v-2 1l1-1a3 3 0 0 1-1 0l1-1h1a4 4 0 0 1-1 0l1-1v1l1-1h-1l2 1-1-1 1 1 1 1a2 2 0 0 1 0-1v1l1 1v2-1l-1 2 1-1-1 1v-1l-1 1h1-3 4l3-3-1-4z" opacity=".7"/>
    <path d="M118 27c6 0 6-10 0-10s-7 10 0 10z"/>
  </g>
</svg>
