<svg xmlns="http://www.w3.org/2000/svg" viewBox=".9 1.08 89.56 87.94">
  <path d="M73.89 13.26c-9.97-6.98-22.22-9.64-33.92-12.1-2.53-.54-4.16 1.66-4.1 3.63a41.5 41.5 0 0 0-9.83 2.82A40.78 40.78 0 0 0 6.03 26c-8.6 16.25-6.48 37.45 7.01 50.42C25 87.87 43.53 91.93 59.25 86.89c9.44-3.02 17.9-8.9 23.42-17.22 5.73-8.64 8.67-20.04 7.55-30.37-1.19-10.92-7.45-19.83-16.33-26.04zM81.59 59a36.72 36.72 0 0 1-17.74 19.54c-13.1 6.73-29.4 5.64-41.62-2.5C8.85 67.12 4.16 50.41 8.66 35.3c2.63-8.82 8.36-15.87 15.95-20.93a45.3 45.3 0 0 1 12.49-5.7c.99-.3 2.02-.57 3.07-.83 16.08 3.05 34.99 7.5 42.27 23.92 3.8 8.57 2.44 18.73-.86 27.24z"/>
  <path d="M69.57 41.86c-8.07-.15-16.17.02-24.25.02-3.5 0-7 .1-10.5.2-4.28.11-9.21-.37-13.29 1.01a1.43 1.43 0 0 0 0 2.72c3.94 1.34 8.68.93 12.8 1.13 3.67.18 7.33.4 11 .52 8.07.25 16.16.61 24.24.47 3.9-.07 3.91-6 0-6.07z"/>
</svg>
