<svg xmlns="http://www.w3.org/2000/svg" viewBox="0 0 89.48 88.44">
  <path fill="#21386b" d="M38.19.25c-2.01.09-3.25 2-3.2 3.71a40.55 40.55 0 0 0-29.4 20.78c-8.7 16.08-6.86 37.2 6.27 50.37C23.65 86.9 42.4 91.16 58.23 86.07c9.23-2.98 17.5-8.72 22.98-16.8a47.9 47.9 0 0 0 7.85-30.25c-1-10.8-6.9-19.7-15.52-26.04C63.52 5.61 51.02 2.86 39.09.33c-.32-.07-.62-.1-.9-.08zM31.2 8.36a45.4 45.4 0 0 0-1.36.63 45.4 45.4 0 0 1 1.36-.63z"/>
  <path fill="ivory" d="M69.27 41.04c-6.81-.13-13.62-.03-20.43 0-.03-2.56-.1-5.12-.18-7.68-.12-4.21.35-9.08-1.02-13.09a1.42 1.42 0 0 0-2.72 0c-1.33 3.89-.93 8.55-1.13 12.63-.14 2.72-.3 5.44-.42 8.16-2.95.02-5.91.1-8.86.19-4.27.12-9.21-.36-13.28 1.02a1.42 1.42 0 0 0 0 2.72c3.94 1.34 8.67.93 12.81 1.12 3.05.15 6.1.32 9.15.45-.24 6.83-.5 13.66-.37 20.49.07 3.9 5.99 3.91 6.06 0 .13-6.76.03-13.53 0-20.3 6.8.23 13.6.47 20.4.35 3.9-.07 3.91-5.99 0-6.07Z"/>
</svg>
