<svg xmlns="http://www.w3.org/2000/svg" viewBox="1.4 1.32 88.98 87.95">
  <path d="M74.68 14.06C64.66 6.69 52.16 3.94 40.23 1.4c-2.53-.54-4.16 1.67-4.1 3.63a40.55 40.55 0 0 0-29.4 20.78C-1.97 41.9-.13 63.02 13 76.19 24.79 88 43.54 92.24 59.37 87.15c9.23-2.98 17.5-8.72 22.98-16.79 5.8-8.56 8.81-19.95 7.85-30.26-1.01-10.8-6.9-19.7-15.52-26.04zm6.66 45.7A36.56 36.56 0 0 1 63.92 78.8c-13.17 6.82-29.6 5.59-41.77-2.83C9 66.87 4.71 50.04 9.3 35.1c2.7-8.74 8.47-15.74 16.07-20.73a44.8 44.8 0 0 1 12.01-5.45c.98-.29 2-.56 3.04-.82 16.1 3.08 35.31 7.68 42.19 24.44 3.54 8.63 2.09 18.75-1.27 27.22z"/>
  <path d="M70.42 42.11c-6.8-.13-13.62-.03-20.43 0-.03-2.56-.1-5.11-.18-7.68-.11-4.2.35-9.07-1.02-13.09a1.42 1.42 0 0 0-2.72 0c-1.33 3.89-.93 8.55-1.13 12.63-.14 2.73-.3 5.44-.42 8.17-2.96.02-5.91.1-8.86.19-4.27.11-9.21-.37-13.29 1.01a1.43 1.43 0 0 0 0 2.73c3.94 1.33 8.68.92 12.8 1.12 3.06.15 6.1.32 9.15.45-.23 6.83-.5 13.66-.36 20.5.07 3.9 5.99 3.9 6.06 0 .13-6.77.03-13.54 0-20.3 6.8.22 13.6.46 20.4.34 3.9-.07 3.9-6 0-6.07z"/>
</svg>
