<svg xmlns="http://www.w3.org/2000/svg" viewBox="16.03 16.62 161.28 155.38">
  <path fill="#0a2954" d="M108.09 16.74c.69.19 1.53.6 2.12 1.07.34.26 9.23 10.08 31.27 34.58l30.8 34.2.57.3c.9.45 1.55.93 2.29 1.7a8.04 8.04 0 0 1 1.98 3.51c.21.78.27 3 .1 3.9a7.99 7.99 0 0 1-2.4 4.33 6.9 6.9 0 0 1-1.92 1.35l-.68.35-30.55 33.95a9367.1 9367.1 0 0 1-31 34.38c-2.13 2.02-4.93 2.18-7.51.43a9.93 9.93 0 0 1-1.92-1.87 7.93 7.93 0 0 1-1.48-3.5l-.21-1.26c-.29-1.42-.74-7.26-.98-12.42a244.6 244.6 0 0 1-.25-9.21c-.02-1.94-.05-3.92-.07-4.4l-.04-.85H60.92c-24.46 0-37.45-.03-37.77-.07a5.67 5.67 0 0 1-3.58-1.71 5.98 5.98 0 0 1-1.5-2.3c-.19-.47-.37-.8-.6-1.05a7.8 7.8 0 0 1-1.18-2.36 11 11 0 0 1-.18-1.12c-.1-.91-.1-67.9 0-68.81a6.28 6.28 0 0 1 1.33-3.36c.25-.31.48-.7.57-.94a6.22 6.22 0 0 1 4.3-4.05l.56-.15 37.66-.02 37.67-.02.04-.64c.03-.35.05-1.57.05-2.71 0-3.5.16-8.9.39-13.24.21-4.02.65-9.33.84-10.13l.18-1.08a8.11 8.11 0 0 1 5.64-6.75 6.2 6.2 0 0 1 1.32-.14c.75-.03 1 0 1.43.11zm4.14 33.36-.11 8.78c-.12 2.86-1.95 5.05-4.86 5.8-.3.09-.93.18-1.41.22-.48.05-1.13.13-1.43.2-.53.1-3.14.12-37.5.13l-36.95.02v58.1h36.77c36.47 0 36.78 0 37.54.14.41.08.93.14 1.15.14 1.39 0 3.11.56 4.23 1.36a5.96 5.96 0 0 1 2.07 2.75c.41 1.13.4 1.06.5 10.31.04 4.68.1 8.77.12 9.09l.04.58 24.01-26.67a9134.34 9134.34 0 0 0 24.03-26.74c.01-.03-10.79-12.07-24-26.75l-24.04-26.7-.04.6c-.02.32-.08 4.2-.12 8.63z"/>
</svg>
