<svg xmlns="http://www.w3.org/2000/svg" viewBox="0 0 184.8 180.8">
  <path fill="#eefaff" d="M106.95 9c-24.83-4.88-46.33 1.11-63.18 15.08C26.2 36.81 17.3 55.37 10.87 76.09c-4.19 13.5-4.3 26.1-2.08 40.05A59.97 59.97 0 0 0 29 152.09c11.34 9.72 23.83 16.5 38.55 18.99 19.93 3.36 40.94 3.78 59.78-3.55 22.48-8.74 40.2-28.59 46.88-51.78 6.67-23.18 2.34-49.17-11.03-69.24-13.37-20.08-35.43-34.02-59.21-38.04"/>
  <path fill="#00ffeb" d="M91.3 0C78.37-.1 65.66 2.48 53.8 8.5a92.61 92.61 0 0 0-38.26 36.75C-3.1 78.48-8.85 124.95 20.25 154.2c13.68 13.75 31.5 22.26 50.6 24.93 20.35 2.85 41.5 2.72 60.75-5.29 33.73-14.04 55.36-49.29 53.03-85.7-2.7-42.23-34.08-77.2-74.98-86.16-.24-.07-.46-.16-.72-.21v.01c-.4-.08-.82-.12-1.24-.2-.58-.1-1.15-.24-1.74-.34-.38-.07-.73-.07-1.1-.09A99.15 99.15 0 0 0 91.3.01Zm-6.9 15.18c-.05 3.71-.18 7.45.06 11.13.24 3.82 2.7 7.44 6.86 7.41 4.16-.03 6.18-3.66 6.5-7.4.29-3.67.17-7.4-.02-11.1 1.66.16 3.31.38 4.96.64 30.9 5.8 56.96 27.89 64.72 58.84.4 1.61.73 3.24 1.02 4.86-2.62.02-5.24.06-7.84.26-3.95.3-7.79 2.18-7.92 6.51-.27 8.71 10.45 7.58 16.94 6.7-.06 24.3-11.9 47.85-33.02 61.33-10.63 6.78-22.6 10.1-34.92 11.14-.1-3.2-.18-6.39-.34-9.57-.2-4.1-1.82-8.43-6.61-8.66-8.41-.4-7.47 11.34-6.56 18.5-16.9-.65-32.92-3.98-47.05-13.69-13.02-8.96-22.26-21.44-25.03-37.18-.51-2.91-.84-5.8-1.02-8.67 2.95.18 6 .18 8.79-.46 3.77-.87 6.34-4.5 5.3-8.26-1.4-5.08-8.01-6.25-13.57-6.32 1.17-9.46 3.85-18.72 7.68-27.85 6.55-15.64 16.72-28.41 30.91-37.76a64.85 64.85 0 0 1 30.16-10.4Z"/>
  <path d="M59.1 27.96c-.9-.02-1.82.11-2.8.42-11.85 3.77-1.73 18.38 2.13 24.13l22.13 32.92.02.03a11.94 11.94 0 0 0-2.04 5.9c-.42 6.36 4.57 12.33 10.85 13.14a12.2 12.2 0 0 0 6.98-1.23c.36.56.86 1.08 1.51 1.52 7.98 5.4 16.01 10.85 24.77 14.93 5.6 2.61 15.13 6.88 18.7-1.08 3.57-7.96-4.4-12.33-10.47-14.65a492.77 492.77 0 0 0-27.65-9.54c1.2-6.53-3.33-13.06-9.75-14.5a5.7 5.7 0 0 0-.8-.11 5.6 5.6 0 0 0-1.02-.13l-.01.01h-.36a5.4 5.4 0 0 0-.18-1.26 121.48 121.48 0 0 0-13.04-30.92 118.63 118.63 0 0 0-9.52-13.51c-2.48-3.06-5.58-5.97-9.45-6.07Zm32.16 61.77c2.64 1.01 2.9 5.24-.53 4.89-3.46-.36-2.4-4.61.53-4.9z"/>
  <path fill="#05d3bf" d="M100.78 9.94a2.53 2.53 0 0 0-2.5.84h-.07c-.75 0-1.5.48-1.5 1.44 0 4 .07 7.99 0 11.98-.05 2.6-.72 7-4.27 6.7-1.92-.18-1.91 2.82 0 3 4.3.36 6.72-3.9 7.15-7.6.26-2.22.13-4.49.13-6.72V18c.3.15.62.26.97.29a72.22 72.22 0 0 1 35.16 12.28 70.82 70.82 0 0 1 23.88 27.72 72.14 72.14 0 0 1 6.29 19.75c.46 2.75 5.17 2.14 4.91-.66a69.77 69.77 0 0 0-.1-.67h.02a77.28 77.28 0 0 0-.08-.35 69.77 69.77 0 0 0-27.36-48.44c-5.82-4.38-12.35-7.67-19.08-10.38-7.66-3.1-15.62-5.36-23.55-7.6zm53.7 72.61a1.47 1.47 0 0 0-1.49.72 6.77 6.77 0 0 0-.52 1.82c-.21.29-.3.65-.3 1-.2.31-.29.7-.14 1.16l-.03-.01c.06.18.14.35.21.53.02.05.01.12.04.17.02.05.06.08.08.12.22.5.46.97.76 1.4a10.63 10.63 0 0 0 3.9 4.3c2.44 1.57 5.34 2.12 8.2 2.47-2.83 17.15-9.74 34.26-21.11 47.5a65.6 65.6 0 0 1-8.77 8.48 62.07 62.07 0 0 1-25.45 8.11c-1.8.15-4.03-.08-5.87.48a18.22 18.22 0 0 0-4.59-12.75 1.71 1.71 0 0 0-.62-.59 1.27 1.27 0 0 0-1.03-.25l-2.58-.51a1.71 1.71 0 0 0-1.16.15 1.52 1.52 0 0 0-.54 2.06c.2.31.52.6.9.69l2.92.58a15.1 15.1 0 0 1 3.37 13.2c-.1.46 0 .85.2 1.16-.07.9.16 1.78.7 2.5.18 1.16 1.14 2.39 2.44 2.23a76.56 76.56 0 0 0 4.84-.85l1.55-.19c2.52-.3 5.02-.75 7.47-1.42a56.13 56.13 0 0 0 20.08-10.33 76.56 76.56 0 0 0 .21-.15 67.53 67.53 0 0 0 2.17-1.18c.43-.28.72-.62.91-1a76.56 76.56 0 0 0 1.28-.9c11.13-8.8 19.66-21.26 24.19-34.91a74.96 74.96 0 0 0 3.81-24.04 2.5 2.5 0 0 0-.54-1.41c.03-.6-.01-1.22-.2-1.81a3.51 3.51 0 0 0-1.8-2.15c-1.04-.47-2.08-.31-3.16-.17-3.4.42-7.8.34-9.55-3.1.04-.16.07-.32.12-.47l.2-.4a1.5 1.5 0 0 0-1.1-2.24z"/>
  <path fill="#8dfff1" d="M82.78 11.9c-1.89-.04-3.92.65-5.57 1.02a76.39 76.39 0 0 0-38.68 22.45 74.03 74.03 0 0 0-10.04 13.7.67.67 0 0 0-.1.23 53.86 53.86 0 0 0-14.56 33.48l-1.99 5.86c-.62 1.85-.57 4.47 1.85 4.7.3.78 1.18 1.4 2.14.88h.01a7.84 7.84 0 0 1 7.15-.11 8.02 8.02 0 0 1 4.1 5.23c.46 1.87 3.35 1.08 2.9-.8a10.9 10.9 0 0 0-5.67-7.11 11.02 11.02 0 0 0-7.25-.8c.15-.47.24-.98.29-1.46A82.4 82.4 0 0 1 28 55.95a80.76 80.76 0 0 1 7.15-10.25c.45 0 .91-.2 1.24-.67a67.32 67.32 0 0 1 47.02-27.97c.71 3.68-.45 7.59.37 11.29.83 3.78 4.3 7.22 8.4 6.21 1.88-.46 1.1-3.36-.79-2.89-1.33.33-2.6-.4-3.45-1.38-1.08-1.22-1.4-2.92-1.48-4.5-.15-3.11.46-6.27-.1-9.33.82-1.53.07-3.6-1.77-4.26-.58-.2-1.19-.3-1.81-.3z"/>
  <path fill="#fff" d="M112.73 38.98s17.2.95 24.73 15.03c7.53 14.08 5.59 27.54 5.59 27.54s.14 2.49-2.35 2.3c-2.49-.19-8.6-17.74-14.5-25.2-5.9-7.46-8.82-10.6-17.49-11.86-8.67-1.26-5.79-5.46-5.79-5.46s1.52-3.34 9.81-2.36z"/>
  <path d="m132.63 30.58-3.33 4.43c-.18.29-.28.6-.3.93a2 2 0 0 0 .04 1 2.5 2.5 0 0 0 3.08 1.74l.6-.25c.38-.22.67-.52.9-.9l3.33-4.43c.18-.29.28-.6.3-.93a2 2 0 0 0-.04-1 2.5 2.5 0 0 0-3.08-1.74l-.6.25a2.5 2.5 0 0 0-.9.9zm21.99 21.65-4.87 2.67c-.54.3-.99.9-1.15 1.49a2.6 2.6 0 0 0 .25 1.93c.34.53.86 1 1.49 1.15.63.15 1.32.08 1.93-.25l4.87-2.67c.54-.3.99-.9 1.15-1.49a2.6 2.6 0 0 0-.25-1.93c-.34-.53-.86-1-1.49-1.15a2.73 2.73 0 0 0-1.93.25zm-3.4 71.27 4.42 1.36a2.5 2.5 0 0 0 2.83-3.67 2.63 2.63 0 0 0-1.49-1.15l-4.42-1.36a2.5 2.5 0 0 0-2.83 3.67c.36.57.85.95 1.49 1.15zm-21.4 26.06 3.08 3.57c.23.24.49.42.8.52.3.16.62.23.96.22.61 0 1.35-.27 1.77-.73.42-.46.76-1.1.73-1.77l-.09-.66a2.5 2.5 0 0 0-.64-1.1l-3.08-3.57a1.92 1.92 0 0 0-.8-.52c-.3-.16-.62-.23-.96-.22-.61 0-1.35.27-1.77.73-.42.46-.76 1.1-.73 1.77l.09.66c.12.42.33.79.64 1.1zM29.43 132.1l-4.21 2.22c-.54.28-.99.92-1.15 1.49-.16.57-.09 1.4.25 1.93.34.53.86 1 1.49 1.15.67.15 1.31.07 1.93-.25l4.21-2.22c.54-.28.99-.92 1.15-1.49.16-.57.09-1.4-.25-1.93-.34-.53-.86-1-1.49-1.15a2.76 2.76 0 0 0-1.93.25zm25.3 21.46-1.33 4.65a2.6 2.6 0 0 0 .25 1.93c.3.52.9 1.01 1.49 1.15.64.15 1.36.11 1.93-.25.57-.36.97-.85 1.15-1.49l1.33-4.65a2.6 2.6 0 0 0-.25-1.93c-.3-.52-.9-1.01-1.49-1.15a2.55 2.55 0 0 0-1.93.25c-.57.36-.97.85-1.15 1.49zM24.04 66.85l3.32 1.12c.33.1.66.12 1 .04.33-.02.64-.11.93-.3.29-.16.53-.37.7-.64.22-.24.37-.52.45-.85.15-.64.11-1.36-.25-1.93l-.39-.51a2.5 2.5 0 0 0-1.1-.64l-3.32-1.12c-.33-.1-.66-.12-1-.04-.33.02-.64.11-.93.3-.29.16-.53.37-.7.64-.22.24-.37.52-.45.85-.15.64-.11 1.36.25 1.93l.39.51c.31.31.68.52 1.1.64zm19.9-29.1 2.44 3.33c.16.29.37.53.64.7.24.22.52.37.85.45.33.1.66.12 1 .04.33-.02.64-.11.93-.3.53-.34 1-.86 1.15-1.49l.09-.66c0-.45-.12-.87-.34-1.26l-2.44-3.33a1.88 1.88 0 0 0-.64-.7 1.89 1.89 0 0 0-.85-.45c-.33-.1-.66-.12-1-.04-.33.02-.64.11-.93.3-.53.34-1 .86-1.15 1.49l-.09.66c0 .45.12.87.34 1.26z"/>
</svg>
