<svg xmlns="http://www.w3.org/2000/svg" id="Layer_2" viewBox="0 0 85.64 81.7">
  <defs>
    <linearGradient id="linear-gradient" x1="42.84" x2="42.8" y1="4.57" y2="65.95" gradientUnits="userSpaceOnUse">
      <stop offset="0" stop-color="#ffeb86"/>
      <stop offset="1" stop-color="#f8e300"/>
    </linearGradient>
    <linearGradient id="linear-gradient-2" x1="42.9" x2="42.87" y1="9.18" y2="62.76" gradientUnits="userSpaceOnUse">
      <stop offset=".11" stop-color="#ffffb4"/>
      <stop offset="1" stop-color="#ff0"/>
    </linearGradient>
    <style>
      .cls-2{fill:#fff}.cls-5{fill:#353535}
    </style>
  </defs>
  <g id="Layer_2-2">
    <path d="M64.37 33.01c-.06 0-.11-.05-.12-.11 0-.07-.92-6.86-2.63-9.48-1.71-2.6-6.26-4.17-6.31-4.18a.12.12 0 0 1-.08-.14c.01-.06.06-.1.12-.1h.47c1.39 0 6.1-.12 8.33-1.62 2.5-1.68 5.31-7.17 5.62-7.79l.04-.09s.07-.06.11-.06l.06.01c.06.03.08.1.05.17l-.03.04-.01.04c-.27.57-1.44 3.65 1.62 8.44 2.06 3.23 4.01 4.63 5.29 5.24.76.19 1.2.4 1.22.41.06.03.08.09.07.15-.02.05-.06.09-.12.09h-.01s-.48-.05-1.24-.41c-.8-.2-1.61-.3-2.43-.3-1.48 0-2.89.34-4.19 1.01-4 2.06-5.68 8.53-5.7 8.59-.01.06-.06.09-.12.09Z" class="cls-2"/>
    <path d="m69.92 9.57-.04.08.04-.08m-.04.08c-.25.54-1.48 3.69 1.63 8.56 2.12 3.32 4.13 4.71 5.35 5.29-.64-.16-1.49-.31-2.47-.31a9.3 9.3 0 0 0-4.25 1.02c-4.09 2.11-5.76 8.67-5.76 8.67s-.9-6.86-2.65-9.53-6.37-4.23-6.37-4.23h.47c1.49 0 6.15-.13 8.4-1.64 2.51-1.69 5.29-7.09 5.66-7.83m6.98 13.85c.76.19 1.21.41 1.21.41s-.46-.05-1.21-.41M69.93 9.32a.26.26 0 0 0-.22.13l-.05.1c-.32.63-3.11 6.07-5.58 7.73-2.2 1.48-6.88 1.6-8.26 1.6h-.46c-.12 0-.22.09-.25.21-.02.12.05.24.17.28.05.02 4.56 1.57 6.24 4.13 1.7 2.59 2.6 9.36 2.61 9.42.02.12.11.21.23.22h.01c.11 0 .21-.08.24-.19.02-.06 1.69-6.48 5.64-8.51 1.28-.66 2.67-1 4.13-1 .8 0 1.6.1 2.39.3.77.36 1.25.42 1.27.42h.03c.11 0 .21-.07.24-.18.03-.12-.02-.24-.13-.29-.02 0-.47-.22-1.23-.42-1.26-.6-3.19-1.99-5.23-5.19-3.02-4.73-1.88-7.75-1.61-8.31l.04-.08a.25.25 0 0 0-.11-.33.27.27 0 0 0-.12-.03Zm-.04.58Z" class="cls-5"/>
    <path fill="url(#linear-gradient)" d="M18.31 80.7c-.56 0-1.01-.15-1.34-.46-2.3-2.12 1.65-18.43 4.35-28.42C-.14 34.08.84 31.91 1.17 31.19c1.02-2.25 15.83-3.75 28.35-4.63.65-1.75 2.62-7 4.84-12.2C40.09 1 41.87 1 42.82 1s2.74 0 8.46 13.36a273.5 273.5 0 0 1 4.83 12.17c10.41.34 27.21 1.41 28.39 4.74 1.19 3.36-11.88 14.15-20.17 20.57.5 1.83 1.97 7.25 3.2 12.76 2.95 13.14 2.08 15.01 1.03 15.72-.31.21-.7.32-1.17.32-4.29 0-20.85-10.73-24.58-13.18-3.72 2.46-20.22 13.23-24.52 13.23Z"/>
    <path d="M42.82 2c3.33 0 12.59 25.51 12.59 25.51s27 .83 28.15 4.09c1.15 3.26-20.37 19.86-20.37 19.86S70.57 77.75 68 79.5c-.14.1-.35.14-.6.14-4.39 0-24.58-13.38-24.58-13.38S22.71 79.69 18.3 79.69c-.3 0-.52-.06-.67-.19-2.25-2.07 4.81-28.04 4.81-28.04S1.06 33.83 2.07 31.6c1.01-2.22 28.15-4.09 28.15-4.09S39.49 2 42.81 2m0-2c-1.79 0-3.86 1.07-9.38 13.97a277.28 277.28 0 0 0-4.64 11.64c-2.31.17-7.39.58-12.48 1.12C1.36 28.35.8 29.58.26 30.78c-.77 1.7-.46 3.42 10.29 13.08 3.87 3.47 7.84 6.83 9.64 8.33-.59 2.22-1.85 7.11-2.94 12.09-2.97 13.51-2.15 15.61-.96 16.7.52.48 1.2.72 2.02.72 4.34 0 18.7-9.19 24.52-13.03 5.84 3.83 20.25 12.98 24.58 12.98.67 0 1.25-.16 1.73-.49 1.49-1.02 2.48-2.98-.62-16.77a293.1 293.1 0 0 0-3.04-12.17c1.84-1.45 5.8-4.61 9.65-7.95 10.62-9.24 10.95-11.58 10.33-13.33-1.06-3-8.28-3.89-16.22-4.59-5.05-.45-10.08-.69-12.41-.78-.82-2.19-2.62-6.92-4.62-11.59C46.68 1.07 44.62 0 42.82 0Z" class="cls-5"/>
    <path fill="url(#linear-gradient-2)" d="M42.88 6.07c2.98 0 11.27 22.84 11.27 22.84s24.18.74 25.21 3.66-18.24 17.78-18.24 17.78 6.61 23.54 4.31 25.11-22.55-11.85-22.55-11.85-20.53 13.71-22.55 11.85 4.31-25.11 4.31-25.11S5.5 34.56 6.4 32.57s25.21-3.66 25.21-3.66 8.3-22.84 11.27-22.84Z"/>
    <path fill="#fffde6" d="M50.23 18.88s-5.62-13.1-7.34-12.82-7 12-7 12 4.45-7.06 6.53-6.98 7.82 7.79 7.82 7.79Z"/>
    <path fill="#fffabb" d="M66.77 29.68s12.48.84 12.6 2.89-9.82 12.14-12.33 13.04 8.38-7.83 8.22-10.74-8.48-5.19-8.48-5.19Z"/>
    <path d="M16.33 56.16a.13.13 0 0 1-.12-.09c-.02-.07-2.19-6.69-4.77-8.43-1-.68-2.63-1.02-4.85-1.02-2.04 0-3.85.31-3.87.31H2.7c-.06 0-.11-.04-.12-.09-.02-.06.02-.13.08-.15.06-.02 5.74-2.22 7.49-4.87 1.75-2.66 2.19-9.37 2.2-9.44 0-.06.05-.11.11-.12h.02c.05 0 .1.03.12.08.03.08 2.53 7.69 4.4 8.67 1.88.99 8.47 1.34 8.53 1.34.06 0 .12.06.12.12s-.05.12-.11.13c-.05 0-5.28.6-7.96 3.82-2.68 3.21-1.13 9.53-1.11 9.59.02.06-.02.13-.09.15h-.03Z" class="cls-2"/>
    <path d="M12.47 32.38s2.53 7.72 4.46 8.74c1.93 1.02 8.59 1.35 8.59 1.35s-5.3.56-8.04 3.86c-2.75 3.3-1.14 9.7-1.14 9.7s-2.17-6.71-4.82-8.5c-1.21-.82-3.16-1.04-4.92-1.04-2.08 0-3.89.31-3.89.31s5.76-2.21 7.55-4.92 2.22-9.5 2.22-9.5m0-.25h-.03a.26.26 0 0 0-.22.23c0 .07-.44 6.75-2.18 9.38-1.72 2.62-7.37 4.8-7.43 4.83-.12.05-.19.18-.15.3.03.11.13.18.24.18h.04c.02 0 1.82-.31 3.85-.31 2.16 0 3.82.35 4.78 1 2.54 1.72 4.7 8.3 4.72 8.37.03.11.13.17.24.17h.07c.13-.04.21-.17.17-.3-.02-.06-1.55-6.32 1.09-9.48 2.65-3.18 7.83-3.77 7.88-3.77a.24.24 0 0 0 .22-.26.24.24 0 0 0-.24-.24c-.07 0-6.62-.35-8.48-1.32-1.51-.79-3.64-6.47-4.34-8.59a.25.25 0 0 0-.24-.17Z" class="cls-5"/>
  </g>
</svg>
