<svg xmlns="http://www.w3.org/2000/svg" id="Layer_2" viewBox="0 0 85.64 81.7">
  <defs>
    <filter id="luminosity-noclip-2" width="90.93" height="87.87" x="-2.85" y="-2.26" color-interpolation-filters="sRGB" filterUnits="userSpaceOnUse">
      <feFlood flood-color="#fff" result="bg"/>
      <feBlend in="SourceGraphic" in2="bg"/>
    </filter>
    <style>
      .cls-3{fill:#990}
    </style>
    <mask id="mask" width="90.93" height="87.87" x="-2.85" y="-2.26" maskUnits="userSpaceOnUse">
      <g filter="url(#luminosity-noclip-2)"/>
    </mask>
  </defs>
  <g id="Layer_2-2">
    <path d="M18.31 80.7c-.56 0-1.01-.15-1.34-.46-2.3-2.12 1.65-18.43 4.35-28.42C-.14 34.08.84 31.91 1.17 31.19c1.02-2.25 15.83-3.75 28.35-4.63.65-1.75 2.62-7 4.84-12.2C40.09 1 41.87 1 42.82 1s2.74 0 8.46 13.36a273.5 273.5 0 0 1 4.83 12.17c10.41.34 27.22 1.41 28.39 4.74 1.19 3.36-11.88 14.15-20.17 20.57.5 1.83 1.97 7.25 3.2 12.76 2.95 13.14 2.08 15.01 1.03 15.72-.31.21-.7.32-1.17.32-4.29 0-20.85-10.73-24.58-13.18-3.72 2.46-20.22 13.23-24.52 13.23Z" class="cls-3"/>
    <path fill="#330" d="M42.82 2c3.33 0 12.59 25.51 12.59 25.51s27 .83 28.15 4.09c1.15 3.26-20.37 19.86-20.37 19.86S70.57 77.75 68 79.5c-.14.1-.35.14-.6.14-4.39 0-24.58-13.38-24.58-13.38S22.71 79.69 18.3 79.69c-.3 0-.52-.06-.67-.19-2.25-2.07 4.81-28.04 4.81-28.04S1.06 33.83 2.07 31.6c1.01-2.22 28.15-4.09 28.15-4.09S39.49 2 42.81 2m0-2c-1.79 0-3.86 1.07-9.38 13.97a277.28 277.28 0 0 0-4.64 11.64c-2.31.17-7.39.58-12.48 1.12C1.36 28.35.8 29.58.26 30.78c-.77 1.7-.46 3.42 10.29 13.08 3.87 3.47 7.84 6.83 9.64 8.33-.59 2.22-1.85 7.11-2.94 12.09-2.97 13.51-2.15 15.61-.96 16.7.52.48 1.2.72 2.02.72 4.34 0 18.7-9.19 24.52-13.03 5.84 3.83 20.25 12.98 24.58 12.98.67 0 1.25-.16 1.73-.49 1.49-1.02 2.48-2.98-.62-16.77a293.1 293.1 0 0 0-3.04-12.17c1.84-1.45 5.8-4.61 9.65-7.95 10.62-9.24 10.95-11.58 10.33-13.33-1.06-3-8.28-3.89-16.22-4.59-5.05-.45-10.08-.69-12.41-.78-.82-2.19-2.62-6.92-4.62-11.59C46.68 1.07 44.62 0 42.82 0Z"/>
    <path fill="#4c4a00" d="M43.09.71c3.46.02 12.92 26.62 12.92 26.62s28.07 1.04 29.25 4.45-21.32 20.51-21.32 20.51 7.5 27.39 4.81 29.19-26.1-13.94-26.1-13.94-23.95 15.77-26.28 13.6 5.19-29.13 5.19-29.13S-.56 33.53.51 31.22s29.31-4.06 29.31-4.06S39.63.69 43.09.71Z"/>
    <g mask="url(#mask)">
      <path d="M43.09.71c3.46.02 12.92 26.62 12.92 26.62s28.07 1.04 29.25 4.45-21.32 20.51-21.32 20.51 7.5 27.39 4.81 29.19-26.1-13.94-26.1-13.94-23.95 15.77-26.28 13.6 5.19-29.13 5.19-29.13S-.56 33.53.51 31.22s29.31-4.06 29.31-4.06S39.63.69 43.09.71Z" class="cls-3"/>
    </g>
    <path fill="#bab100" d="M44.69 9.95s-.3-3.85-1.86-3.69-8.62 18.23-8.62 18.23 7.38-16 8.88-16.22c1.45.34 1.59 1.68 1.59 1.68ZM7.12 34.04s-2.58-1.33-1.25-1.75 19.95-2.49 19.95-2.49-18.71 2.49-18.79 2.99.08 1.25.08 1.25Z"/>
  </g>
</svg>
