<svg xmlns="http://www.w3.org/2000/svg" viewBox="0 0 641.37 3.14">
  <path fill="#ffffcc" d="M140.44 3c-25.08-.25-51.37.22-76.87-.17a738.3 738.3 0 0 0-31.52.26 676 676 0 0 1-30.67-.44c-4.19-.29 2.16-.49 6.65-.68h-.16C19.65 1.2 34.04.69 58.41.81 71.89.88 85.49.55 99.8.66c10.45.08 21.54.03 31.53.21.86.02 2.07.06 2.51.05 12.27-.31 25.63-.14 38.44-.2 4.77-.02 9.62-.09 14.27-.07 7.17.02 12.94-.04 19.75-.18 9.02-.18 19.06-.23 26.3.25 2.46.16 11.6.2 17.92.06 8.83-.19 17.3-.27 25.7 0 .68.02 2.02.04 2.69.03 18.12-.35 37.34.17 54.07-.11 19.5-.32 35.81-.11 53.89.03 10.53.08 22.17-.16 33.7-.17 4.22 0 8.74-.1 13.37-.05 1.63.02 3.73.05 4.96.02A1025 1025 0 0 1 473.45.3h-.04c9.36-.33 18.68-.21 27.99-.04h-.15c.91.06-.36.19 3.38.17 11.52-.07 22.63.07 34.01.07 1.86 0 4.19 0 5.56-.05a526.82 526.82 0 0 1 31.89-.07c8.84-.43 21.75-.09 31.98-.33 10.56-.26 34.41.37 33.26.85-.22.09-3.03.18-4.65.26h.15c-13.26.52-28.22.83-46.37 1.03-15.72.18-29.87-.14-43.29.02-12.24.15-24.8.22-36.34.22-14.96 0-29.47.33-45.19.08-8.53-.14-19.85 0-29.92.02-20.13.04-40.04.28-60.48.06-8.1-.09-18.34-.11-26.66.15h.14c-11.92-.19-22.83.19-34.78.14-20.01-.08-40.62.08-60.24-.19-2.59-.04-6.56-.01-8.93.05-7.12.18-13.88.14-20.81.03-8.21-.13-16.48-.15-24.89 0-6.37.12-12.67.22-18.95 0-1-.03-3.44-.07-3.99-.05-10.9.42-24.18.08-35.81.24h.12Z"/>
</svg>
