<svg xmlns="http://www.w3.org/2000/svg" viewBox="0 0 1005.51 497.08">
  <path fill="#ff0" d="m1.82 58.31 16.11 226.5L0 477.47l184.51 19.61 210-33.85 250.27-.7 276.25 17.3 84.48-23.6-15-300.41c-1.17.38 4.83-115.95 6-116.33l-98 9.48-350-14.89-161 21.66-248.19-4.06-137.5 6.63Z"/>
  <path fill="#111c36" stroke="#111c36" stroke-width="4" d="m166.58 11.23-2.6 19.11h-15.73v71.37h-25.74V30.34h-17.03V11.23h61.1Zm71.5 0-17.29 90.48h-33.93l-18.72-90.48h25.74l10.27 72.28 8.84-72.28h25.09Zm75.79 45.11c0 15.77-3.03 27.71-9.1 35.82-6.07 8.1-15 12.15-26.78 12.15s-20.69-4.01-26.71-12.02c-6.02-8.02-9.04-20-9.04-35.95s3.01-27.56 9.04-35.62c6.02-8.06 14.93-12.09 26.71-12.09 23.92 0 35.88 15.9 35.88 47.71Zm-41.34-26.58c-1.3 1.87-2.23 4.88-2.79 9.04-.56 4.16-.85 10.01-.85 17.55s.26 13.8.78 18c.52 4.21 1.43 7.21 2.73 9.04 1.3 1.82 3.16 2.73 5.59 2.73s4.42-.91 5.72-2.73c1.3-1.82 2.21-4.81 2.73-8.97s.78-10.18.78-18.07c0-7.45-.28-13.28-.84-17.49-.56-4.2-1.52-7.23-2.86-9.1-1.34-1.86-3.19-2.79-5.52-2.79s-4.16.93-5.46 2.79Zm78.65 57.65c0 7.63-1.39 13.97-4.16 19.04-2.77 5.07-6.22 9.01-10.33 11.83a72.65 72.65 0 0 1-14.36 7.47l-6.89-18.07c3.03-1.48 5.27-3.1 6.69-4.88a13.18 13.18 0 0 0 2.73-6.24c.39-2.38.58-5.74.58-10.08V11.23h25.74v76.18Zm67.6-18.33h-2.34v32.63H390.7V11.23h27.69c23.4 0 35.1 9.54 35.1 28.6 0 5.11-.96 9.79-2.86 14.04-1.91 4.25-5.07 7.67-9.49 10.27l17.68 37.57h-27.04l-13-32.63Zm-2.34-17.29h2.34c3.21 0 5.46-.93 6.76-2.79 1.3-1.86 1.95-4.92 1.95-9.17 0-3.81-.74-6.61-2.21-8.38-1.48-1.78-3.77-2.67-6.89-2.67h-1.95v23.01Zm99.58-40.56-2.6 17.81h-23.27v18.07h20.54v17.42h-20.54v19.11h24.83v18.07h-50.57V11.23h51.61Zm64.6 0v19.11l-30.03 51.22h31.2l-2.34 20.15h-57.2V82.86l29.9-52.13h-27.17v-19.5h55.64Zm72.67 63.18c0 8.75-2.73 15.9-8.19 21.45-5.46 5.55-13.52 8.32-24.18 8.32s-18.85-2.67-24.31-8c-5.46-5.33-8.19-12.59-8.19-21.77V11.23h25.74v62.4c0 4.33.5 7.43 1.5 9.29 1 1.87 2.75 2.79 5.26 2.79s4.25-.95 5.2-2.86c.95-1.91 1.43-4.98 1.43-9.23V11.23h25.74v63.18Zm36.92-63.18v70.72h27.3l-2.6 19.76h-50.44V11.23h25.74Zm80.99 0-2.6 19.11h-15.73v71.37h-25.74V30.34H710.1V11.23h61.1Zm41.6 90.48-2.6-17.94h-15.73l-2.6 17.94h-25.61l21.06-90.48h30.42l20.93 90.48H812.8Zm-15.73-35.88h10.53l-5.33-36.53-5.2 36.53Zm98.94-54.6-2.6 19.11h-15.73v71.37h-25.74V30.34h-17.03V11.23h61.1Z"/>
  <path fill="#fff" stroke="#111c36" stroke-width="4" d="m166.58 4.6-2.6 19.11h-15.73v71.37h-25.74V23.71h-17.03V4.6h61.1Zm71.5 0-17.29 90.48h-33.93L168.14 4.6h25.74l10.27 72.28 8.84-72.28h25.09Zm75.79 45.11c0 15.77-3.03 27.71-9.1 35.82-6.07 8.1-15 12.15-26.78 12.15s-20.69-4.01-26.71-12.02c-6.02-8.02-9.04-20-9.04-35.95s3.01-27.56 9.04-35.62C257.3 6.03 266.21 2 277.99 2c23.92 0 35.88 15.9 35.88 47.71Zm-41.34-26.58c-1.3 1.87-2.23 4.88-2.79 9.04-.56 4.16-.85 10.01-.85 17.55s.26 13.8.78 18c.52 4.21 1.43 7.21 2.73 9.04 1.3 1.82 3.16 2.73 5.59 2.73s4.42-.91 5.72-2.73c1.3-1.82 2.21-4.81 2.73-8.97s.78-10.18.78-18.07c0-7.45-.28-13.28-.84-17.49-.56-4.2-1.52-7.23-2.86-9.1-1.34-1.86-3.19-2.79-5.52-2.79s-4.16.93-5.46 2.79Zm78.65 57.65c0 7.63-1.39 13.97-4.16 19.04-2.77 5.07-6.22 9.01-10.33 11.83a72.65 72.65 0 0 1-14.36 7.47l-6.89-18.07c3.03-1.48 5.27-3.1 6.69-4.88a13.18 13.18 0 0 0 2.73-6.24c.39-2.38.58-5.74.58-10.08V4.6h25.74v76.18Zm67.6-18.33h-2.34v32.63H390.7V4.6h27.69c23.4 0 35.1 9.54 35.1 28.6 0 5.11-.96 9.79-2.86 14.04-1.91 4.25-5.07 7.67-9.49 10.27l17.68 37.57h-27.04l-13-32.63Zm-2.34-17.29h2.34c3.21 0 5.46-.93 6.76-2.79 1.3-1.86 1.95-4.92 1.95-9.17 0-3.81-.74-6.61-2.21-8.38-1.48-1.78-3.77-2.67-6.89-2.67h-1.95v23.01ZM516.02 4.6l-2.6 17.81h-23.27v18.07h20.54V57.9h-20.54v19.11h24.83v18.07h-50.57V4.6h51.61Zm64.6 0v19.11l-30.03 51.22h31.2l-2.34 20.15h-57.2V76.23l29.9-52.13h-27.17V4.6h55.64Zm72.67 63.18c0 8.75-2.73 15.9-8.19 21.45-5.46 5.55-13.52 8.32-24.18 8.32s-18.85-2.67-24.31-8c-5.46-5.33-8.19-12.59-8.19-21.77V4.6h25.74V67c0 4.33.5 7.43 1.5 9.29 1 1.87 2.75 2.79 5.26 2.79s4.25-.95 5.2-2.86c.95-1.91 1.43-4.98 1.43-9.23V4.6h25.74v63.18ZM690.21 4.6v70.72h27.3l-2.6 19.76h-50.44V4.6h25.74Zm80.99 0-2.6 19.11h-15.73v71.37h-25.74V23.71H710.1V4.6h61.1Zm41.6 90.48-2.6-17.94h-15.73l-2.6 17.94h-25.61L787.32 4.6h30.42l20.93 90.48H812.8ZM797.07 59.2h10.53l-5.33-36.53-5.2 36.53Zm98.94-54.6-2.6 19.11h-15.73v71.37h-25.74V23.71h-17.03V4.6h61.1Z"/>
</svg>
