<svg xmlns="http://www.w3.org/2000/svg" viewBox="12.72 11.6 779.94 189.07">
  <path fill="#fff" d="M7.05 206.39h294.94V6.11H7.05v200.28z"/>
  <path fill="#174494" d="M12.72 200.67h283.6V11.6H12.72v189.07z"/>
  <path fill="#ffeb00" d="m148.48 52.79 5.98-4.36 5.99 4.36-2.28-7.06 6.08-4.37h-7.5l-2.29-7.14-2.29 7.15-7.49-.01 6.07 4.37-2.27 7.06m-30.97 8.32 5.98-4.36 5.98 4.36-2.27-7.06 6.07-4.37h-7.49l-2.29-7.15-2.29 7.16-7.49-.01 6.07 4.37-2.27 7.06m-16.68 4.13-2.29 7.16h-7.49l6.07 4.36-2.27 7.07 5.98-4.37 5.99 4.37-2.28-7.07 6.07-4.36h-7.49l-2.29-7.16m-8.31 45.15 5.98 4.36-2.27-7.06 6.07-4.36h-7.49l-2.29-7.16-2.29 7.17-7.5-.01 6.08 4.36-2.27 7.06 5.98-4.36m10.6 23.96-2.29-7.16-2.29 7.17-7.49-.01 6.07 4.36-2.27 7.07 5.98-4.38 5.99 4.38-2.28-7.07 6.07-4.36h-7.49m22.71 22.7-2.3-7.15-2.29 7.16-7.49-.01 6.08 4.37-2.28 7.06 5.99-4.37 5.98 4.37-2.28-7.06 6.08-4.37h-7.49m30.93 8.23-2.3-7.16-2.28 7.17-7.5-.01 6.08 4.37-2.28 7.06 5.99-4.37 5.98 4.37-2.28-7.06 6.08-4.37h-7.49m30.93-8.23-2.29-7.15-2.3 7.16-7.48-.01 6.07 4.37-2.28 7.06 5.99-4.37 5.98 4.37-2.28-7.06 6.08-4.37h-7.49m22.71-22.7-2.3-7.16-2.3 7.17-7.48-.01 6.08 4.36-2.28 7.07 5.98-4.38 5.98 4.38-2.28-7.07 6.08-4.36h-7.48m15.71-31.11h-7.49l-2.3-7.16-2.29 7.17-7.49-.01 6.08 4.37-2.28 7.06 5.98-4.38 5.98 4.38-2.27-7.06 6.08-4.37m-23.99-19.51 5.98-4.37 5.98 4.37-2.28-7.06 6.08-4.36h-7.48l-2.3-7.16-2.3 7.17-7.48-.01 6.08 4.36-2.28 7.06m-16.64-41.19-2.28 7.16-7.5-.02 6.07 4.38-2.27 7.06 5.99-4.37 5.98 4.37-2.27-7.06 6.07-4.38h-7.5l-2.29-7.14"/>
  <path fill="#174494" d="m334.79 68.3 9.14-.89c.55 3.07 1.67 5.32 3.35 6.76 1.68 1.44 3.95 2.16 6.81 2.16 3.03 0 5.31-.64 6.84-1.92 1.53-1.28 2.3-2.78 2.3-4.49 0-1.1-.32-2.04-.97-2.81-.65-.77-1.77-1.44-3.38-2.02-1.1-.38-3.61-1.06-7.52-2.03-5.04-1.25-8.57-2.78-10.6-4.6a12.09 12.09 0 0 1-4.28-9.36c0-2.37.67-4.59 2.02-6.65a12.62 12.62 0 0 1 5.81-4.71c2.53-1.08 5.58-1.62 9.16-1.62 5.84 0 10.24 1.28 13.19 3.84 2.95 2.56 4.5 5.98 4.65 10.25l-9.39.41c-.4-2.39-1.26-4.11-2.59-5.16-1.32-1.05-3.31-1.57-5.95-1.57s-4.87.56-6.41 1.68a3.37 3.37 0 0 0-1.49 2.89c0 1.1.46 2.04 1.4 2.83 1.18.99 4.06 2.03 8.63 3.11 4.57 1.08 7.95 2.2 10.14 3.35a13.05 13.05 0 0 1 5.14 4.73c1.24 2 1.86 4.47 1.86 7.41a13.7 13.7 0 0 1-8.51 12.68c-2.71 1.13-6.08 1.7-10.12 1.7-5.88 0-10.4-1.36-13.55-4.08-3.15-2.72-5.04-6.68-5.65-11.89Zm52.75-1.72c0 3.34.79 5.9 2.38 7.68 1.59 1.78 3.54 2.67 5.87 2.67s4.28-.89 5.86-2.67c1.58-1.78 2.36-4.36 2.36-7.74s-.79-5.84-2.36-7.62c-1.58-1.78-3.53-2.67-5.86-2.67s-4.28.89-5.87 2.67c-1.59 1.78-2.38 4.34-2.38 7.68Zm-9.14-.48c0-2.96.73-5.83 2.19-8.6a15.07 15.07 0 0 1 6.2-6.35 18.44 18.44 0 0 1 8.97-2.19c5.1 0 9.28 1.66 12.54 4.97 3.26 3.31 4.89 7.5 4.89 12.55s-1.65 9.33-4.94 12.68c-3.29 3.35-7.43 5.03-12.43 5.03-3.09 0-6.04-.7-8.84-2.09a14.4 14.4 0 0 1-6.4-6.14c-1.46-2.7-2.19-5.98-2.19-9.85Zm63.13 17.33v-33.7h8.92v33.71h-8.92Zm0-38.28V36.9h8.92v8.25h-8.92Zm-25.04 4.57h4.95v-2.54c0-2.84.3-4.95.9-6.35a7.11 7.11 0 0 1 3.33-3.41c1.62-.88 3.67-1.32 6.14-1.32s5.02.38 7.46 1.14l-1.2 6.22c-1.42-.34-2.78-.51-4.1-.51s-2.22.3-2.78.91c-.56.6-.84 1.76-.84 3.48v2.38h6.66v7.01h-6.66v26.69h-8.92V56.73h-4.95v-7.01Zm74.04 33.71h-8.92v-17.2c0-3.64-.19-5.99-.57-7.06a4.92 4.92 0 0 0-4.96-3.38c-1.54 0-2.93.42-4.16 1.27a6.37 6.37 0 0 0-2.52 3.37c-.45 1.4-.68 3.98-.68 7.74v15.27h-8.92V49.73h8.28v4.95c2.94-3.81 6.64-5.71 11.11-5.71 1.97 0 3.77.35 5.4 1.06a9.08 9.08 0 0 1 3.7 2.71 9.8 9.8 0 0 1 1.75 3.75c.33 1.4.49 3.4.49 6v20.95Zm27.65-16.18c-1.14.38-2.95.84-5.43 1.36-2.47.53-4.09 1.05-4.86 1.56-1.16.83-1.74 1.87-1.74 3.14s.46 2.33 1.4 3.24a4.87 4.87 0 0 0 3.55 1.36 7.7 7.7 0 0 0 4.6-1.59 5.6 5.6 0 0 0 2.13-2.95c.23-.76.35-2.21.35-4.35v-1.78Zm-11.93-7.24-8.09-1.46c.91-3.26 2.48-5.67 4.7-7.24 2.22-1.57 5.52-2.35 9.9-2.35 3.98 0 6.94.47 8.89 1.41 1.95.94 3.32 2.14 4.11 3.59.79 1.45 1.19 4.11 1.19 7.98l-.09 10.41c0 2.96.14 5.15.43 6.55.29 1.41.82 2.92 1.6 4.52h-8.82a34.3 34.3 0 0 1-.86-2.63c-.15-.53-.25-.88-.32-1.05a15.99 15.99 0 0 1-4.89 3.33 14 14 0 0 1-5.55 1.11c-3.47 0-6.2-.94-8.2-2.82-2-1.88-3-4.26-3-7.14 0-1.9.46-3.6 1.37-5.09a8.96 8.96 0 0 1 3.82-3.43c1.64-.79 4-1.49 7.09-2.08 4.17-.78 7.06-1.51 8.66-2.19v-.89c0-1.71-.42-2.94-1.27-3.67-.85-.73-2.44-1.1-4.79-1.1-1.59 0-2.83.31-3.71.94-.89.62-1.61 1.72-2.16 3.29Zm60.14 23.42h-8.92v-17.2c0-3.64-.19-5.99-.57-7.06a4.92 4.92 0 0 0-4.95-3.38c-1.54 0-2.93.42-4.16 1.27a6.37 6.37 0 0 0-2.52 3.37c-.46 1.4-.68 3.98-.68 7.74v15.27h-8.92V49.73h8.29v4.95c2.94-3.81 6.64-5.71 11.11-5.71 1.97 0 3.77.35 5.4 1.06a9.08 9.08 0 0 1 3.7 2.71 9.8 9.8 0 0 1 1.75 3.75c.33 1.4.49 3.4.49 6v20.95Zm38.43-23.74-8.79 1.59a6.39 6.39 0 0 0-2.02-3.97 6.09 6.09 0 0 0-4.08-1.33 6.7 6.7 0 0 0-5.32 2.3c-1.32 1.53-1.98 4.1-1.98 7.7 0 4 .67 6.82 2.02 8.47a6.62 6.62 0 0 0 5.41 2.48c1.69 0 3.08-.48 4.16-1.44s1.84-2.62 2.28-4.97l8.76 1.49c-.91 4.02-2.66 7.06-5.24 9.11s-6.04 3.08-10.38 3.08c-4.93 0-8.86-1.55-11.79-4.67-2.93-3.11-4.4-7.41-4.4-12.92s1.47-9.9 4.41-13c2.94-3.1 6.92-4.65 11.93-4.65 4.1 0 7.37.88 9.79 2.65 2.42 1.77 4.16 4.46 5.22 8.08Zm6.76 23.74v-33.7h8.92v33.71h-8.92Zm0-38.28V36.9h8.92v8.25h-8.92Zm26.6 38.28h-8.92v-33.7h8.28v4.79c1.42-2.26 2.69-3.75 3.82-4.47a7.04 7.04 0 0 1 3.86-1.08c2.03 0 3.99.56 5.87 1.68l-2.76 7.78c-1.5-.97-2.9-1.46-4.19-1.46s-2.31.34-3.17 1.03c-.87.69-1.55 1.93-2.05 3.73-.5 1.8-.75 5.57-.75 11.3v10.41Zm35.36-16.18c-1.14.38-2.95.84-5.43 1.36-2.48.53-4.09 1.05-4.86 1.56-1.16.83-1.74 1.87-1.74 3.14s.47 2.33 1.4 3.24a4.86 4.86 0 0 0 3.55 1.36 7.7 7.7 0 0 0 4.6-1.59 5.6 5.6 0 0 0 2.13-2.95c.23-.76.35-2.21.35-4.35v-1.78Zm-11.93-7.24-8.09-1.46c.91-3.26 2.48-5.67 4.7-7.24 2.22-1.57 5.52-2.35 9.9-2.35 3.98 0 6.94.47 8.89 1.41 1.95.94 3.32 2.14 4.11 3.59.79 1.45 1.19 4.11 1.19 7.98l-.1 10.41c0 2.96.14 5.15.43 6.55a18.8 18.8 0 0 0 1.6 4.52h-8.82a34.3 34.3 0 0 1-.86-2.63c-.15-.53-.25-.88-.32-1.05a15.99 15.99 0 0 1-4.89 3.33 14 14 0 0 1-5.55 1.11c-3.47 0-6.21-.94-8.2-2.82-2-1.88-3-4.26-3-7.14 0-1.9.46-3.6 1.36-5.09a8.93 8.93 0 0 1 3.83-3.43c1.64-.79 4-1.49 7.09-2.08 4.17-.78 7.06-1.51 8.66-2.19v-.89c0-1.71-.42-2.94-1.27-3.67-.85-.73-2.44-1.1-4.79-1.1-1.59 0-2.82.31-3.71.94-.89.62-1.61 1.72-2.16 3.29ZM337.17 161.43v-46.52h34.5v7.87h-25.1v10.31h23.36v7.84h-23.36v12.66h25.99v7.84h-35.39zm52.56 0-13.58-33.71h9.36l6.35 17.2 1.84 5.74c.49-1.46.79-2.42.92-2.89.3-.95.61-1.9.95-2.86l6.41-17.2h9.17l-13.39 33.71h-8.03Zm35.42 0h-8.92v-33.71h8.28v4.79c1.42-2.26 2.69-3.76 3.82-4.48a7.04 7.04 0 0 1 3.86-1.08c2.03 0 3.99.56 5.87 1.68l-2.76 7.78c-1.5-.97-2.9-1.46-4.19-1.46s-2.31.34-3.17 1.03c-.87.69-1.55 1.93-2.05 3.73-.5 1.8-.75 5.57-.75 11.3v10.41Zm23.84-16.85c0 3.34.79 5.9 2.38 7.68 1.59 1.78 3.54 2.67 5.87 2.67s4.28-.89 5.86-2.67c1.58-1.78 2.36-4.36 2.36-7.74s-.79-5.84-2.36-7.62c-1.58-1.78-3.53-2.67-5.86-2.67s-4.29.89-5.87 2.67c-1.59 1.78-2.38 4.34-2.38 7.68Zm-9.14-.48c0-2.96.73-5.83 2.19-8.6a15.07 15.07 0 0 1 6.2-6.35 18.44 18.44 0 0 1 8.97-2.19c5.1 0 9.28 1.66 12.54 4.97 3.26 3.31 4.89 7.5 4.89 12.55s-1.64 9.33-4.93 12.68c-3.29 3.35-7.43 5.03-12.42 5.03-3.09 0-6.04-.7-8.84-2.1a14.4 14.4 0 0 1-6.4-6.14c-1.46-2.7-2.19-5.98-2.19-9.85Zm50.33-.09c0 3.79.75 6.59 2.25 8.39 1.5 1.81 3.33 2.71 5.49 2.71s3.8-.83 5.17-2.49c1.37-1.66 2.06-4.38 2.06-8.17 0-3.53-.71-6.16-2.13-7.87s-3.17-2.57-5.27-2.57-3.99.84-5.43 2.52c-1.44 1.68-2.16 4.17-2.16 7.47Zm-8.82-16.28h8.31v4.95a12.51 12.51 0 0 1 10.5-5.72c3.91 0 7.24 1.54 9.97 4.6 2.73 3.07 4.09 7.34 4.09 12.82s-1.38 10-4.13 13.12c-2.75 3.12-6.08 4.68-10 4.68-1.86 0-3.55-.37-5.06-1.11a17.2 17.2 0 0 1-4.78-3.81v16.98h-8.92v-46.53Zm36.82 24.09 8.95-1.36a6.51 6.51 0 0 0 2.32 3.95c1.16.9 2.79 1.35 4.89 1.35 2.31 0 4.04-.42 5.21-1.27a2.84 2.84 0 0 0 1.17-2.38c0-.68-.21-1.24-.63-1.68-.44-.42-1.44-.81-2.98-1.17-7.19-1.59-11.75-3.04-13.68-4.35a8.68 8.68 0 0 1-4-7.59 9.33 9.33 0 0 1 3.46-7.36c2.31-1.99 5.88-2.98 10.73-2.98s8.04.75 10.28 2.25a11.5 11.5 0 0 1 4.63 6.67l-8.41 1.55a5.2 5.2 0 0 0-2.05-3.02c-1.01-.7-2.44-1.05-4.3-1.05-2.35 0-4.03.33-5.05.98a2.1 2.1 0 0 0-1.02 1.81c0 .63.29 1.17.89 1.62.8.59 3.58 1.43 8.33 2.51 4.75 1.08 8.07 2.4 9.95 3.97 1.86 1.59 2.79 3.8 2.79 6.63 0 3.09-1.29 5.74-3.87 7.97-2.58 2.22-6.4 3.33-11.46 3.33-4.59 0-8.22-.93-10.9-2.79a12.82 12.82 0 0 1-5.25-7.59Zm38.97 9.61v-46.52h8.92v24.69l10.44-11.87h10.98l-11.52 12.31 12.35 21.39h-9.62l-8.47-15.14-4.16 4.35v10.79h-8.92zm55.07-16.18c-1.14.38-2.95.84-5.43 1.36-2.48.53-4.09 1.05-4.86 1.56-1.16.83-1.74 1.87-1.74 3.14s.47 2.33 1.4 3.24a4.86 4.86 0 0 0 3.55 1.36 7.7 7.7 0 0 0 4.6-1.59 5.6 5.6 0 0 0 2.13-2.95c.23-.76.35-2.21.35-4.35v-1.78Zm-11.93-7.24-8.09-1.46c.91-3.26 2.47-5.67 4.7-7.24 2.22-1.57 5.52-2.35 9.9-2.35 3.98 0 6.94.47 8.89 1.41 1.95.94 3.32 2.14 4.11 3.59.79 1.45 1.19 4.11 1.19 7.98l-.1 10.41c0 2.96.14 5.15.43 6.55.28 1.41.82 2.91 1.6 4.52h-8.82a33.4 33.4 0 0 1-.86-2.64c-.15-.53-.25-.88-.32-1.05-1.52 1.48-3.15 2.59-4.89 3.33s-3.59 1.11-5.55 1.11c-3.47 0-6.2-.94-8.2-2.82-2-1.88-3-4.26-3-7.14 0-1.9.46-3.6 1.36-5.09a8.96 8.96 0 0 1 3.82-3.43c1.64-.79 4-1.49 7.09-2.08 4.17-.78 7.06-1.51 8.66-2.19v-.89c0-1.72-.42-2.94-1.27-3.67-.85-.73-2.44-1.1-4.79-1.1-1.59 0-2.83.31-3.71.94-.89.62-1.61 1.72-2.16 3.29Zm69.72 23.42v-5.05a12.93 12.93 0 0 1-4.84 4.25 13.52 13.52 0 0 1-12.42.06 8.75 8.75 0 0 1-3.9-4.19c-.8-1.8-1.21-4.28-1.21-7.46v-21.33h8.92v15.49c0 4.74.16 7.64.49 8.71a4.72 4.72 0 0 0 1.79 2.54c.87.62 1.97.94 3.3.94 1.52 0 2.89-.42 4.09-1.25a6.28 6.28 0 0 0 2.47-3.11c.45-1.24.67-4.27.67-9.09v-14.22h8.92v33.71h-8.28Zm48.18 0h-8.92v-17.2c0-3.64-.19-5.99-.57-7.06a4.92 4.92 0 0 0-4.96-3.38c-1.54 0-2.93.42-4.16 1.27a6.38 6.38 0 0 0-2.52 3.36c-.45 1.4-.68 3.98-.68 7.74v15.27h-8.92v-33.71h8.28v4.95c2.94-3.81 6.64-5.71 11.11-5.71 1.97 0 3.77.35 5.4 1.06a9.08 9.08 0 0 1 3.7 2.71 9.8 9.8 0 0 1 1.75 3.75c.33 1.4.49 3.39.49 6v20.95Zm9.05 0v-33.71h8.92v33.71h-8.92Zm0-38.28v-8.25h8.92v8.25h-8.92Zm17.87.01v-8.25h8.92v8.25h-8.92Zm8.92 4.57v32.66c0 4.3-.28 7.33-.84 9.09a7.33 7.33 0 0 1-3.24 4.14c-1.6.99-3.63 1.49-6.11 1.49-.89 0-1.85-.08-2.87-.24-1.02-.16-2.13-.4-3.32-.72l1.55-7.62 1.19.21c.37.05.71.08 1.03.08.91 0 1.66-.2 2.24-.59.58-.39.97-.86 1.16-1.41.19-.55.29-2.2.29-4.95v-32.15h8.92Zm27.92 17.52c-1.14.38-2.95.84-5.43 1.36-2.48.53-4.09 1.05-4.86 1.56-1.16.83-1.74 1.87-1.74 3.14s.46 2.33 1.4 3.24a4.86 4.86 0 0 0 3.55 1.36 7.7 7.7 0 0 0 4.6-1.59 5.6 5.6 0 0 0 2.13-2.95c.23-.76.35-2.21.35-4.35v-1.78Zm-11.93-7.24-8.09-1.46c.91-3.26 2.48-5.67 4.7-7.24 2.22-1.57 5.52-2.35 9.9-2.35 3.98 0 6.94.47 8.89 1.41 1.95.94 3.32 2.14 4.11 3.59.79 1.45 1.19 4.11 1.19 7.98l-.09 10.41c0 2.96.14 5.15.43 6.55a19.4 19.4 0 0 0 1.6 4.52h-8.82a33.4 33.4 0 0 1-.86-2.64c-.15-.53-.25-.88-.32-1.05a15.99 15.99 0 0 1-4.89 3.33 14 14 0 0 1-5.55 1.11c-3.47 0-6.21-.94-8.2-2.82-2-1.88-3-4.26-3-7.14 0-1.9.45-3.6 1.36-5.09a8.99 8.99 0 0 1 3.83-3.43c1.64-.79 4-1.49 7.09-2.08 4.17-.78 7.06-1.51 8.66-2.19v-.89c0-1.72-.42-2.94-1.27-3.67-.85-.73-2.44-1.1-4.79-1.1-1.59 0-2.83.31-3.71.94-.89.62-1.61 1.72-2.16 3.29Z"/>
</svg>
