<svg xmlns="http://www.w3.org/2000/svg" viewBox="0 0 617.77 304.57">
  <g fill="#21386b">
    <path d="M209.51 153.48c-1.37 5.13-2.29 8-2.75 8.71l.51-.05q14-7.92 16.69-12v-.25l-4.91.32h-.47q-9.28 1-9 3.22M128.81 162q-7.82 2-17.19 12.34-5 6.14-4.51 10.92v.25q.51 4.47 6.24 4.5l2.16-.24q8.72-1 15.06-11.81a23.78 23.78 0 0 0 .82-7.13c-.43-2.38-.86-3.81-1.27-4.29l.17-.79c-.77-2.52-1.28-3.77-1.5-3.75m13.87-55.16a24.07 24.07 0 0 0 .82-7.13c-.43-2.37-.86-3.8-1.27-4.28l.17-.79c-.78-2.52-1.27-3.77-1.5-3.75q-7.82 2-17.19 12.34c-3.37 4.08-4.87 7.73-4.51 10.92v.25c.33 3 2.41 4.47 6.23 4.5l2.16-.24q8.72-1 15.06-11.82M236 79v-.26l-4.9.32-.48.06q-9.28 1-9 3.22c-1.38 5.13-2.29 8-2.75 8.71l.51-.06q14-7.9 16.68-12m115.34 4.53a24.1 24.1 0 0 0 .83-7.14c-.44-2.37-.86-3.8-1.28-4.28l.17-.79q-1.16-3.78-1.5-3.75-7.82 2-17.19 12.34-5 6.12-4.51 10.92v.25c.33 3 2.41 4.47 6.23 4.5l2.16-.24q8.73-1 15.06-11.81M401.06 78a24.11 24.11 0 0 0 .82-7.13c-.44-2.37-.86-3.8-1.27-4.29l.17-.78c-.78-2.52-1.28-3.78-1.5-3.75Q391.47 64 382.09 74.4q-5.05 6.12-4.52 10.92v.25q.5 4.46 6.24 4.5l2.16-.24q8.72-1 15.06-11.82m48-15.43q-.63-5.64-9.76-6c-1.19.14-1.92 1.68-2.18 4.65l-6.63 21.89q19.54-11.96 18.6-20.54M466.82 123v-.26l-4.9.33h-.48q-9.29 1-9 3.22c-1.37 5.13-2.29 8-2.74 8.71l.5-.06q14-7.91 16.69-12m51.54-7.31c.06.58-2.84 1.54-8.7 2.9q-3 .33-11.15 4.65l-2.08 5.59h.26q1.23-.63 7.37-1.57l.56.68-.7.33v.23c1.29-.15 1.95-.06 2 .26l-1.15.64v.22h.48l-.14.75c.08.81.79 1.38 2.12 1.73v.22l-.19.28v.22c.8-.09 1.22 0 1.26.37v.23q.07.72-14.74 5.53c-1.26.14-2.59 2.73-4 7.77l17-4.82v.48h.25l1.18-.39c.3.78.74 1.14 1.34 1.07l.08.73a1.68 1.68 0 0 0-1.12.87l-.51.05v.23l1.46-.17.05.51-1.2.13.27.2v.25l-.23.25c2.38-.26 3.7 0 4 .78l-.19.28c.81 0 1.24.22 1.28.59q-2 1.62-14 5.2-14.16 4-13.95 6a3.7 3.7 0 0 1-1.92 2.4h-.25l-1.57-1-.5.06-1.18.38c-.05-.41-.88-.72-2.52-.94l-.7.31-.28-.2v-.25l.18-.76-.48.06-.23.28h-.22l-.28-.22v-.23q1.2-7.37 13.3-42.41-.27-2.41 3-3.27l9.42-.79 9.31-1.78a.85.85 0 0 0 1.06.85v.48l-.73.08v.25c.81-.09 1.23 0 1.26.34v.25l-.95.11c0 .49.55.68 1.51.57v.48l-.73.08v.22l2.88-.32 2.33 1-.23.28v.22c.8-.09 1.22 0 1.26.38m-39.89 9.73q.36 3.23-13.46 12.37 5.4 15.15 6.09 21.32l.28.22v.23l-.17.78.5 2.16-.23.28-.47.06c-.08-.66-.28-1-.62-.93.06.49-.08.75-.39.78l-.51.06-.25-.23h-.25c-.17.68-.38 1-.62 1.06l-1.26-.11-.42.56c-.21-.81-.67-1.18-1.38-1.1a135.93 135.93 0 0 1-9.15-20.24l-10.58 4.9c-.76 2.41-1.42 3.8-2 4.17l-.11 1.26-.73.08.68-2.8v-.25h-.25l-.93 2.83.56.44c-.62.07-1.66 1.91-3.1 5.52-.23 0-.59 1.16-1.11 3.36q-.49 0-1.89 5.15h-.26c-.08-.75-1-1.32-2.65-1.7l-.42.56c0-.33-.31-.47-.82-.42l-.7.34c-.45-.84-1-1.28-1.62-1.3l-.08-.76q-.66-5.91 9.78-34.21-5.52-2.91-5.76-5l-.13-1.21q0-1.3 8.53-5.4 1-2.1 12.74-3.41l2.18-.25q16.35-1.82 20.49 8.59l.42 1.46ZM461.43 59q.76 6.85-12 22.46a76.4 76.4 0 0 1-14.08 10.43q-8.36 3.48-10.22 5.31h-2.69c-2.85 1.79-4.62 2.73-5.34 2.81l-.28-.23.6-1.28h-.23l-1.4.64-.42-1.43.37-1h-.22l-1.15.61-.28-.22v-.23l.17-.76h-.25l-.95.36q-.74.09-.84-.9c-.82 0-1.25-.22-1.29-.59a8.2 8.2 0 0 1 2.95-2.29q3.8-3.63 9.16-21.18 3.25-10.55 3.1-11.89-4.39.48-7.43-5-.22-2.06 18.8-5.31l1.23-.14a31 31 0 0 1 18.6 3.83c2.5 1.94 3.87 3.92 4.09 5.93m-61.89 39.81a33.34 33.34 0 0 1-7.93 2.19l-3 .33q-12.57 1.39-19.52-10.83c-.54-.05-1.06-1.55-1.58-4.5l-.21-1.83q-1.3-12.43 15.57-24.61 10.8-6.68 17.73-7.45h.28c1.78-.2 3.76 1.32 6 4.53l.31.25.14 1.26q.13 1.22-3.81 2.53v.25q7 7 7.8 13.69l.15 1.29q1.85 16.61-11.92 22.94m-49.68 5.54a33.21 33.21 0 0 1-7.93 2.19l-3 .33q-12.54 1.37-19.5-10.84-.79-.09-1.58-4.51l-.2-1.82Q316.27 77.2 333.19 65q10.81-6.68 17.74-7.45h.28c1.77-.19 3.76 1.32 6 4.54l.32.25.14 1.26c.08.8-1.18 1.64-3.81 2.52v.25q7.05 7 7.8 13.7l.14 1.29q1.86 16.59-11.92 22.93m-24.13-36.35q.12 1.07-26.65 6.72-2.69.3-3 4.62c-.23 0-.6 1.41-1.13 4.15h.25l6.85-1.28c.92 1 1.59 1.41 2 1.37l.15 1.34.62.73v.25l-.78.08v.28h.25l1.69-.5 1.65.35v.28l-.25.29v.28c1.09.1 1.66.3 1.69.6q-2.91 2.91-17.94 7.65-6.87 18.12-8.18 20.53c-1.42.16-2.11.5-2 1h-.25l-.87-.45.25-.28-.12-1.07-.53.06c.06.52-.09.81-.45.85-.28-.86-.78-1.25-1.49-1.17v.25c0 .91-.22 1.39-.63 1.43l-.29-.25h-.28l-.47.59-1.21-1.2a.71.71 0 0 1-.88-.73q-.54-4.77 5.9-21.6 6.19-16.81 5.51-22.9 1.69-4 3.57-4.18l4.38.59a200.32 200.32 0 0 1 25-4.66c0 .28.7.57 2 .86.07.65.56 1 1.46 1.17v.28l-.22.28v.28c.69-.08 1.06.06 1.1.42l-.23.28c.84-.1 2 .68 3.47 2.31m-52.61 70.78a198.5 198.5 0 0 1 25-4.66c0 .28.7.56 2 .85.07.66.55 1.05 1.46 1.18v.28l-.22.28v.28c.69-.08 1.06.06 1.1.41l-.23.28q1.26-.13 3.47 2.31.12 1.06-26.65 6.72-2.69.3-3 4.62c-.23 0-.6 1.41-1.13 4.16h.25l6.85-1.27c.92 1 1.59 1.41 2 1.36l.15 1.34.62.73v.25l-.79.09v.28h.25l1.57-.46 1.65.36v.28l-.25.28v.28c1.09.11 1.66.31 1.69.61q-2.91 2.91-17.94 7.65-6.87 18.1-8.18 20.53c-1.42.16-2.11.5-2 1h-.25l-.87-.44.25-.29-.12-1.06-.53.06q.09.78-.45.84c-.28-.85-.78-1.25-1.49-1.17v.26c0 .91-.23 1.39-.64 1.43l-.28-.25h-.28l-.47.59-1.22-1.2a.7.7 0 0 1-.87-.72q-.54-4.77 5.9-21.61 6.19-16.81 5.51-22.9 1.68-4 3.57-4.17ZM247.7 81.44q.36 3.23-13.47 12.38 5.42 15.15 6.1 21.32l.28.22v.23l-.17.78.5 2.16-.23.28h-.48c-.07-.65-.27-1-.61-.92q.07.72-.39.78l-.51.06-.25-.23h-.25c-.18.68-.38 1-.62 1.06l-1.27-.11-.42.55c-.2-.81-.66-1.17-1.37-1.09a136.94 136.94 0 0 1-9.16-20.24l-10.57 4.9c-.76 2.41-1.42 3.8-2 4.17l-.11 1.26-.73.08.68-2.8v-.25h-.25l-.94 2.83.56.44c-.61.07-1.65 1.91-3.1 5.51-.22 0-.59 1.17-1.1 3.36q-.51.06-1.89 5.15h-.26c-.08-.74-1-1.31-2.65-1.69l-.43.56c0-.34-.3-.47-.81-.42l-.7.33c-.45-.83-1-1.27-1.62-1.29l-.09-.76q-.65-5.91 9.78-34.22-5.5-2.89-5.75-5l-.14-1.21q.06-1.31 8.54-5.41 1-2.1 12.74-3.4l2.18-.25q16.35-1.82 20.49 8.59l.42 1.46Zm-49.12.38q1.8 16.14-16.68 39a17 17 0 0 1-8.78 3.47q-9.39 1.05-13.27-5.47l-.8-2.89-.14-1.21a36.55 36.55 0 0 1 2-17.57l4.7-15.65c1.15-2.27 2.41-3.48 3.8-3.63l1.23-.14q3.9-.44 6.83 3.44l.33 1q.24 2-4 12.85-4.41 11.7-3.37 20.93l.08.72a35.64 35.64 0 0 0 9.17-11.18q8-12.9 9.1-18.36l1.11-3.33a.65.65 0 0 0 .65-.81l.22-.28.5-.06.11 1h.23c.14-2.82.4-4.25.77-4.29h.25l.11 1h.23l-.22-2 .5-.06.08.73c.55-.36 1.14-1.67 1.78-3.92h.25c1.8 1.34 2.88 3.61 3.23 6.83m-40 67c2.6-.29 4.87.86 6.83 3.44l.33 1q.22 2-4 12.85-4.41 11.71-3.37 20.93l.08.73a35.65 35.65 0 0 0 9.17-11.19q8-12.9 9.11-18.36l1.1-3.33a.65.65 0 0 0 .65-.81l.22-.28.51-.06.11 1h.22c.14-2.82.4-4.25.77-4.29h.25l.11 1h.23l-.22-2 .5-.06.08.73c.55-.36 1.14-1.67 1.78-3.92h.25q2.7 2 3.23 6.82 1.81 16.14-16.68 39a17 17 0 0 1-8.78 3.48q-9.39 1-13.27-5.48l-.8-2.89-.14-1.2a36.72 36.72 0 0 1 2-17.58l4.7-15.65c1.15-2.26 2.41-3.48 3.8-3.63Zm-17.4-21.29a33.34 33.34 0 0 1-7.93 2.19l-3 .33q-12.55 1.4-19.52-10.82c-.54-.06-1.06-1.56-1.58-4.51l-.21-1.82q-1.38-12.45 15.54-24.62 10.81-6.67 17.73-7.45h.28q2.67-.28 6 4.54l.31.25.14 1.25q.14 1.22-3.81 2.53v.25q7.06 7 7.81 13.7l.14 1.29q1.84 16.59-11.92 22.93m-28.76 31.74q10.81-6.68 17.73-7.45h.28c1.78-.2 3.76 1.31 6 4.53l.31.25.14 1.26q.13 1.2-3.8 2.52v.26q7.07 7 7.81 13.69l.14 1.29q1.86 16.59-11.92 22.93a33.21 33.21 0 0 1-7.93 2.19l-3 .33q-12.57 1.41-19.52-10.82c-.54-.06-1.06-1.56-1.58-4.51l-.2-1.82q-1.4-12.45 15.53-24.62m74.88 31.88q-.66-5.92 9.77-34.22-5.51-2.91-5.75-5l-.14-1.21q.06-1.31 8.54-5.4 1-2.1 12.74-3.41l2.18-.25q16.39-1.85 20.5 8.52l.42 1.46.08.73q.36 3.23-13.47 12.37 5.42 15.15 6.1 21.32l.28.23v.22l-.17.79.49 2.15-.22.28-.48.06c-.07-.66-.27-1-.61-.93.05.49-.08.75-.4.79h-.5l-.25-.23h-.25c-.17.68-.38 1-.63 1.06l-1.25-.11-.43.56c-.2-.81-.66-1.18-1.37-1.1a135.47 135.47 0 0 1-9.15-20.24l-10.59 4.9q-1.12 3.62-2 4.17l-.11 1.26-.73.08.68-2.8v-.25h-.25l-.94 2.83.57.45q-.93.09-3.11 5.51c-.22 0-.59 1.16-1.1 3.36-.34 0-1 1.75-1.9 5.15h-.25c-.08-.75-1-1.31-2.66-1.69l-.42.55q0-.49-.81-.42l-.7.34a2 2 0 0 0-1.62-1.3Zm118.61-40.55 4.69-15.65c1.15-2.27 2.41-3.48 3.8-3.64l1.23-.13q3.9-.43 6.83 3.44l.33.95q.24 2.06-4 12.86-4.41 11.7-3.37 20.92l.08.73a35.62 35.62 0 0 0 9.17-11.18q8-12.9 9.11-18.36l1.1-3.33a.66.66 0 0 0 .65-.81l.22-.29.51-.05.11 1h.22c.14-2.82.4-4.25.77-4.29h.25l.11 1h.23l-.22-2h.5l.08.73c.55-.37 1.14-1.67 1.78-3.92h.25c1.8 1.33 2.88 3.61 3.23 6.82q1.81 16.15-16.68 39a17 17 0 0 1-8.78 3.48q-9.39 1-13.27-5.47l-.8-2.89-.14-1.21a36.54 36.54 0 0 1 2-17.57m39.79-18.07c-.12-1.12.46-2.25 1.75-3.4l3.45-.38q8.3-.93 27.46-6l5-.31 5-.56a2.24 2.24 0 0 1 2.28 1.11l-.25.28c.89 0 1.36.18 1.41.64v.28l-2.89.32v.26l1-.12.06.54h-.51l.29.25-.23.28.06.54 1.35.1v.28l-.25.29v.28q1.59-.18 1.83 1.92c.72 0 1.11.24 1.15.67l.06.53-15.41 3.59c-1.33.15-2.19 1.94-2.61 5.38Q365 168.23 363.09 176q-1.43 1.78-2.46 1.89l-1.18-.94c-1.05.11-1.62-.27-1.72-1.15l-.25.32h-.25c-.09-.45-1.06-1.15-2.9-2.1l-1-1.25q-.58-5.33 9.55-29.71l1.57-5.26-9.64 2.67q-5.55.62-8-4.19l-1.14-3.08Zm47.76 8.3 4.7-15.65c1.14-2.27 2.41-3.48 3.79-3.63l1.24-.14q3.88-.43 6.83 3.44l.33.95q.23 2.05-4 12.86-4.4 11.7-3.37 20.92l.08.73a35.59 35.59 0 0 0 9.17-11.18q8-12.9 9.11-18.36l1.11-3.33a.65.65 0 0 0 .64-.81l.23-.28.5-.06.11 1h.23c.13-2.81.39-4.24.77-4.28h.25l.11 1h.22l-.22-2h.51l.08.73c.54-.37 1.14-1.67 1.78-3.92h.25c1.79 1.33 2.87 3.61 3.23 6.82q1.8 16.16-16.68 39a17 17 0 0 1-8.78 3.48q-9.4 1.05-13.27-5.48l-.81-2.88-.13-1.21a36.54 36.54 0 0 1 2-17.57m224.34-74.49L517.83 0 299.76 36.31 150 47.47 52.81 69.88 28.63 189.74 0 304.57l62.4-65.2 483.14-38 24.87-38.17Z"/>
    <path d="m96.3 268.59-4.58 27.8-10 .74.04-20.13-2.56 20.32-9.93.73-.84-27.41 7.46-.55-.52 21.82 3.23-22 7.61-.56v21.78l2.72-22Zm18.29-1.35-1.26 5.5-6.71.49-.38 5.52 6-.45-.39 5.32-6 .44-.36 5.83 7.38-.55-.38 5.52-15 1.1 1.83-27.6Zm29.09 25.32-7.77.57-.4-5.42-4.36.32-1 5.53-7.89.58 8-28.06 9.07-.67Zm-11.55-10 3-.23-.85-11.53ZM165 276a10.68 10.68 0 0 1-3.39 3.79l4.53 11.11-7.85.57-3.29-9.65-.74.05-.65 9.95-7.61.57 1.83-27.6 7.77-.58q9.74-.7 10.28 6.74A9.53 9.53 0 0 1 165 276Zm-10.45.6.66-.05a2.7 2.7 0 0 0 2.38-1.5 6.24 6.24 0 0 0 .54-3.33 2.43 2.43 0 0 0-.7-1.77 2.47 2.47 0 0 0-1.79-.42l-.62.05Zm30.76-14.6-1.26 5.5-6.71.49-.38 5.52 6-.45-.39 5.32-6 .44-.36 5.82 7.38-.54-.38 5.52-15 1.1 1.83-27.6Zm17.16 26.22-7.61.56 1.83-27.6 7.61-.56-.7 10.31 3.61-.27.66-10.31 7.62-.56-1.8 27.6-7.61.56.75-11.26-3.61.27Zm34.69-10.61a10.09 10.09 0 0 1-2.81 6.53 10.44 10.44 0 0 1-7.06 3c-2.88.22-5.1-.31-6.67-1.57a7.07 7.07 0 0 1-2.59-5.24 9.9 9.9 0 0 1 0-1.54l1.26-19.27 7.62-.56-1.31 20.26a3.86 3.86 0 0 0 0 .67c.09 1.18.66 1.72 1.74 1.64 1.31-.09 2-1 2.13-2.68l1.31-20.18 7.65-.56ZM259 284l-8.91.66-3.31-20.79c.27 2.25.46 4 .54 5.17a59.12 59.12 0 0 1 .08 7.42l-.41 8.43-6.55.48 1.79-27.59 8.95-.66 3.21 20.88c-.21-1.85-.38-3.55-.49-5.09a56.51 56.51 0 0 1-.09-7.1l.45-8.87 6.51-.48Zm21.71-28.83a10.3 10.3 0 0 1 3.46 2.35l-3.69 3.94a7.46 7.46 0 0 0-2-1.21 4.74 4.74 0 0 0-2.06-.26c-2.12.15-3.55 1.71-4.31 4.67a31.46 31.46 0 0 0-.71 10.06 5.72 5.72 0 0 0 .69 2.73 1.62 1.62 0 0 0 1.53.74 3.61 3.61 0 0 0 2.1-.95l.37-5.23-1.89.14-.35-5.27 9.66-.71-.83 13.83a16.55 16.55 0 0 1-4.37 2.57 15.62 15.62 0 0 1-4.63 1.13q-9.27.68-10-9.64a25.9 25.9 0 0 1 .94-9.42 15.46 15.46 0 0 1 4.28-7.08 11.66 11.66 0 0 1 7.31-3 9.84 9.84 0 0 1 4.5.61Zm24.94 10.45a10.68 10.68 0 0 1-3.39 3.79l4.53 11.11-7.85.58-3.36-9.66-.75.05-.64 10-7.62.56 1.83-27.6 7.77-.57q9.74-.72 10.29 6.73a9.73 9.73 0 0 1-.81 5.01Zm-10.46.6.67-.05a2.69 2.69 0 0 0 2.38-1.5 6.34 6.34 0 0 0 .54-3.33 2.47 2.47 0 0 0-.7-1.77 2.54 2.54 0 0 0-1.79-.42l-.63.05Zm33.91-14.81-8.1 17.92-.67 10.19-7.61.56.67-10.19-5.87-16.89 8-.59 2.15 11.44L321 252Zm25.16-1.86-1.29 5.5-6.13.45-.4 6.34 5.58-.41-.47 5.48-5.49.41-.7 10.35-7.61.56 1.83-27.6Zm22.13 8.03a28.9 28.9 0 0 1-.72 9.39 15.16 15.16 0 0 1-3.81 7 10.52 10.52 0 0 1-6.93 3q-9.07.67-9.84-9.77a29.1 29.1 0 0 1 .71-9.38 14.77 14.77 0 0 1 3.78-7 10.58 10.58 0 0 1 6.94-3q9.11-.64 9.87 9.76ZM364 256.05a23.65 23.65 0 0 0-1.1 6 45.51 45.51 0 0 0 0 6.39 5.06 5.06 0 0 0 .63 2.44 1.5 1.5 0 0 0 1.45.64c1.07-.08 1.9-.92 2.48-2.54a22.18 22.18 0 0 0 1.09-5.83 46.2 46.2 0 0 0 0-6.45 5.49 5.49 0 0 0-.64-2.55 1.52 1.52 0 0 0-1.45-.69c-1.05.04-1.86.92-2.46 2.59Zm34.34 2.73a10.67 10.67 0 0 1-3.39 3.79l4.53 11.11-7.85.57-3.35-9.65h-.75l-.65 10-7.61.57 1.83-27.6 7.77-.58q9.74-.7 10.28 6.74a9.55 9.55 0 0 1-.81 5.05Zm-10.45.59.67-.05a2.64 2.64 0 0 0 2.37-1.49 6.33 6.33 0 0 0 .55-3.33 2.43 2.43 0 0 0-.71-1.77 2.4 2.4 0 0 0-1.78-.42l-.63.05Zm30.83 8.78a14 14 0 0 1-1.56 6 10.74 10.74 0 0 1-3.23 3.66 26.19 26.19 0 0 1-4.61 2.45l-1.65-5.26a6 6 0 0 0 2.59-2.57 12.41 12.41 0 0 0 .89-4.27l1.5-22.92 7.62-.56Zm23.15-5.65a10.15 10.15 0 0 1-2.82 6.54 10.43 10.43 0 0 1-7.06 3c-2.88.22-5.1-.31-6.66-1.57a7.08 7.08 0 0 1-2.6-5.24 9.9 9.9 0 0 1 0-1.54L424 244.4l7.62-.56-1.32 20.26a5.23 5.23 0 0 0 0 .67q.13 1.77 1.74 1.65c1.31-.1 2-1 2.13-2.68l1.31-20.19 7.66-.56Zm18.32-20.61a9.83 9.83 0 0 1 3.74 2.52l-3.4 4.12a5.81 5.81 0 0 0-4.43-1.72 3 3 0 0 0-2 .79 2.09 2.09 0 0 0-.61 1.69 2.2 2.2 0 0 0 .87 1.61 16.39 16.39 0 0 0 3.24 1.68 10.58 10.58 0 0 1 4 2.78 7.55 7.55 0 0 1 1.57 4.38 9.53 9.53 0 0 1-4.62 9.08 12 12 0 0 1-5.48 1.69 11 11 0 0 1-9.37-3.41l3.76-4.19a10.47 10.47 0 0 0 2.55 1.63 5.63 5.63 0 0 0 2.65.39 3.11 3.11 0 0 0 2.22-1 2.82 2.82 0 0 0 .67-2.16 2.86 2.86 0 0 0-1-2 12.61 12.61 0 0 0-3.21-1.73 10.53 10.53 0 0 1-4-2.65 7 7 0 0 1-1.47-4.09 9.07 9.07 0 0 1 1-5 8.72 8.72 0 0 1 3.37-3.5 12.53 12.53 0 0 1 10-.93Zm23.97-1.89-1.16 5.89-4.63.34-1.46 21.77-7.61.56 1.43-21.73-5.17.38.39-5.86Zm10.4-.81-1.83 27.6-7.61.56 1.82-27.6Zm21.96.81-3.52 4.23a4.58 4.58 0 0 0-3.4-1.29 3.46 3.46 0 0 0-2.84 2.22 14.58 14.58 0 0 0-1.32 5.13 36.54 36.54 0 0 0-.06 6.1 6.5 6.5 0 0 0 .89 3.29 2.18 2.18 0 0 0 2.06.87 4 4 0 0 0 1.87-.63 19.14 19.14 0 0 0 2.18-1.68l3 4a12.09 12.09 0 0 1-8.25 4.32 8.22 8.22 0 0 1-6.69-2.21q-2.58-2.52-3-7.81a27.59 27.59 0 0 1 .79-9.33 14.6 14.6 0 0 1 4-6.88 11 11 0 0 1 7-3 9 9 0 0 1 7.29 2.67Zm18.54-3.8-1.25 5.5-6.71.5-.38 5.51 6-.44-.4 5.31-6 .44-.36 5.83 7.38-.55-.39 5.52-15 1.11 1.83-27.6Z"/>
  </g>
</svg>
